<mxfile host="Electron" modified="2023-05-20T14:31:26.765Z" agent="Mozilla/5.0 (Windows NT 10.0; Win64; x64) AppleWebKit/537.36 (KHTML, like Gecko) draw.io/21.2.1 Chrome/112.0.5615.87 Electron/24.1.2 Safari/537.36" etag="PUQ7UXwHmoLwCl9g-PHe" version="21.2.1" type="device">
  <diagram name="Page-1" id="GNv7o_ANjAsbQmbC9kj8">
    <mxGraphModel dx="4123" dy="1474" grid="1" gridSize="10" guides="1" tooltips="1" connect="1" arrows="1" fold="1" page="1" pageScale="1" pageWidth="827" pageHeight="1169" math="0" shadow="0">
      <root>
        <mxCell id="0" />
        <mxCell id="1" parent="0" />
        <mxCell id="ihGcIfO41RnAnkwEPjgw-4" value="&lt;font style=&quot;font-size: 18px;&quot;&gt;&lt;span style=&quot;font-size: 18px;&quot;&gt;Registered Customer&lt;/span&gt;&lt;/font&gt;" style="whiteSpace=wrap;html=1;align=center;fontStyle=1;fontFamily=Times New Roman;fontSize=18;" parent="1" vertex="1">
          <mxGeometry x="-480" y="1410.17" width="180" height="40" as="geometry" />
        </mxCell>
        <mxCell id="ihGcIfO41RnAnkwEPjgw-5" value="&lt;span style=&quot;font-size: 18px;&quot;&gt;Name&lt;/span&gt;" style="ellipse;whiteSpace=wrap;html=1;align=center;fontFamily=Times New Roman;fontSize=18;fontStyle=1" parent="1" vertex="1">
          <mxGeometry x="-740" y="1360" width="110" height="40" as="geometry" />
        </mxCell>
        <mxCell id="ihGcIfO41RnAnkwEPjgw-6" value="&lt;span style=&quot;font-size: 18px;&quot;&gt;Customer_ID&lt;/span&gt;" style="ellipse;whiteSpace=wrap;html=1;align=center;fontStyle=5;fontFamily=Times New Roman;fontSize=18;" parent="1" vertex="1">
          <mxGeometry x="-810" y="1460.17" width="170" height="40" as="geometry" />
        </mxCell>
        <mxCell id="ihGcIfO41RnAnkwEPjgw-7" value="&lt;span style=&quot;font-size: 18px;&quot;&gt;L_Name&lt;/span&gt;" style="ellipse;whiteSpace=wrap;html=1;align=center;fontFamily=Times New Roman;fontSize=18;fontStyle=1" parent="1" vertex="1">
          <mxGeometry x="-870" y="1400" width="117" height="40" as="geometry" />
        </mxCell>
        <mxCell id="ihGcIfO41RnAnkwEPjgw-8" value="&lt;span style=&quot;font-size: 18px;&quot;&gt;F_Name&lt;/span&gt;" style="ellipse;whiteSpace=wrap;html=1;align=center;fontFamily=Times New Roman;fontSize=18;fontStyle=1" parent="1" vertex="1">
          <mxGeometry x="-870" y="1320.17" width="117" height="40" as="geometry" />
        </mxCell>
        <mxCell id="ihGcIfO41RnAnkwEPjgw-9" value="&lt;span style=&quot;font-size: 18px;&quot;&gt;DOB&lt;/span&gt;" style="ellipse;whiteSpace=wrap;html=1;align=center;fontFamily=Times New Roman;fontSize=18;fontStyle=1" parent="1" vertex="1">
          <mxGeometry x="-680" y="1229" width="110" height="40" as="geometry" />
        </mxCell>
        <mxCell id="ihGcIfO41RnAnkwEPjgw-10" value="&lt;span style=&quot;font-size: 18px;&quot;&gt;NIC&lt;/span&gt;" style="ellipse;whiteSpace=wrap;html=1;align=center;fontFamily=Times New Roman;fontSize=18;fontStyle=1" parent="1" vertex="1">
          <mxGeometry x="-660" y="1580.17" width="117" height="40" as="geometry" />
        </mxCell>
        <mxCell id="ihGcIfO41RnAnkwEPjgw-11" value="&lt;span style=&quot;font-size: 18px;&quot;&gt;C_Password&lt;/span&gt;" style="ellipse;whiteSpace=wrap;html=1;align=center;fontFamily=Times New Roman;fontSize=18;fontStyle=1" parent="1" vertex="1">
          <mxGeometry x="-780" y="1530" width="140" height="40" as="geometry" />
        </mxCell>
        <mxCell id="ihGcIfO41RnAnkwEPjgw-12" value="&lt;span style=&quot;font-size: 18px;&quot;&gt;Email&lt;/span&gt;" style="ellipse;whiteSpace=wrap;html=1;align=center;fontFamily=Times New Roman;fontSize=18;fontStyle=1" parent="1" vertex="1">
          <mxGeometry x="-770" y="1280" width="117" height="40" as="geometry" />
        </mxCell>
        <mxCell id="ihGcIfO41RnAnkwEPjgw-13" value="" style="endArrow=none;html=1;rounded=0;fontFamily=Times New Roman;fontSize=18;exitX=1;exitY=0.5;exitDx=0;exitDy=0;entryX=0;entryY=0.75;entryDx=0;entryDy=0;fontStyle=1" parent="1" source="ihGcIfO41RnAnkwEPjgw-6" target="ihGcIfO41RnAnkwEPjgw-4" edge="1">
          <mxGeometry relative="1" as="geometry">
            <mxPoint x="-180" y="1500.17" as="sourcePoint" />
            <mxPoint x="-20" y="1500.17" as="targetPoint" />
          </mxGeometry>
        </mxCell>
        <mxCell id="ihGcIfO41RnAnkwEPjgw-14" value="" style="endArrow=none;html=1;rounded=0;fontFamily=Times New Roman;fontSize=18;exitX=1;exitY=0.5;exitDx=0;exitDy=0;entryX=0;entryY=0.5;entryDx=0;entryDy=0;fontStyle=1" parent="1" source="ihGcIfO41RnAnkwEPjgw-5" target="ihGcIfO41RnAnkwEPjgw-4" edge="1">
          <mxGeometry relative="1" as="geometry">
            <mxPoint x="-180" y="1500.17" as="sourcePoint" />
            <mxPoint x="-20" y="1500.17" as="targetPoint" />
          </mxGeometry>
        </mxCell>
        <mxCell id="ihGcIfO41RnAnkwEPjgw-15" value="" style="endArrow=none;html=1;rounded=0;fontFamily=Times New Roman;fontSize=18;exitX=0.953;exitY=0.761;exitDx=0;exitDy=0;exitPerimeter=0;entryX=0.06;entryY=0.238;entryDx=0;entryDy=0;entryPerimeter=0;fontStyle=1" parent="1" source="ihGcIfO41RnAnkwEPjgw-8" target="ihGcIfO41RnAnkwEPjgw-5" edge="1">
          <mxGeometry relative="1" as="geometry">
            <mxPoint x="-180" y="1500.17" as="sourcePoint" />
            <mxPoint x="-600" y="1370.17" as="targetPoint" />
          </mxGeometry>
        </mxCell>
        <mxCell id="ihGcIfO41RnAnkwEPjgw-16" value="" style="endArrow=none;html=1;rounded=0;fontFamily=Times New Roman;fontSize=18;exitX=0.967;exitY=0.261;exitDx=0;exitDy=0;entryX=0;entryY=1;entryDx=0;entryDy=0;exitPerimeter=0;fontStyle=1" parent="1" source="ihGcIfO41RnAnkwEPjgw-7" target="ihGcIfO41RnAnkwEPjgw-5" edge="1">
          <mxGeometry relative="1" as="geometry">
            <mxPoint x="-180" y="1500.17" as="sourcePoint" />
            <mxPoint x="-20" y="1500.17" as="targetPoint" />
          </mxGeometry>
        </mxCell>
        <mxCell id="ihGcIfO41RnAnkwEPjgw-17" value="" style="endArrow=none;html=1;rounded=0;fontFamily=Times New Roman;fontSize=18;entryX=1;entryY=0.5;entryDx=0;entryDy=0;exitX=0;exitY=0.25;exitDx=0;exitDy=0;fontStyle=1" parent="1" source="ihGcIfO41RnAnkwEPjgw-4" target="ihGcIfO41RnAnkwEPjgw-12" edge="1">
          <mxGeometry relative="1" as="geometry">
            <mxPoint x="-450" y="1420.17" as="sourcePoint" />
            <mxPoint x="-110" y="1440.17" as="targetPoint" />
          </mxGeometry>
        </mxCell>
        <mxCell id="ihGcIfO41RnAnkwEPjgw-18" value="" style="endArrow=none;html=1;rounded=0;fontFamily=Times New Roman;fontSize=18;entryX=0.5;entryY=0;entryDx=0;entryDy=0;exitX=0.1;exitY=0.996;exitDx=0;exitDy=0;exitPerimeter=0;fontStyle=1" parent="1" source="ihGcIfO41RnAnkwEPjgw-4" target="ihGcIfO41RnAnkwEPjgw-10" edge="1">
          <mxGeometry relative="1" as="geometry">
            <mxPoint x="-400" y="1400.17" as="sourcePoint" />
            <mxPoint x="-320" y="1500.17" as="targetPoint" />
          </mxGeometry>
        </mxCell>
        <mxCell id="ihGcIfO41RnAnkwEPjgw-19" value="" style="endArrow=none;html=1;rounded=0;fontFamily=Times New Roman;fontSize=18;entryX=1;entryY=0;entryDx=0;entryDy=0;exitX=0;exitY=1;exitDx=0;exitDy=0;fontStyle=1" parent="1" source="ihGcIfO41RnAnkwEPjgw-4" target="ihGcIfO41RnAnkwEPjgw-11" edge="1">
          <mxGeometry relative="1" as="geometry">
            <mxPoint x="-440" y="1400.17" as="sourcePoint" />
            <mxPoint x="-20" y="1500.17" as="targetPoint" />
          </mxGeometry>
        </mxCell>
        <mxCell id="ihGcIfO41RnAnkwEPjgw-20" value="&lt;span style=&quot;font-size: 18px;&quot;&gt;Cus_Phone_No&lt;/span&gt;" style="ellipse;shape=doubleEllipse;margin=3;whiteSpace=wrap;html=1;align=center;fontFamily=Times New Roman;fontSize=18;fontStyle=1" parent="1" vertex="1">
          <mxGeometry x="-300" y="1540" width="160" height="50" as="geometry" />
        </mxCell>
        <mxCell id="ihGcIfO41RnAnkwEPjgw-21" value="" style="endArrow=none;html=1;rounded=0;fontFamily=Times New Roman;fontSize=18;entryX=0;entryY=0;entryDx=0;entryDy=0;exitX=0.75;exitY=1;exitDx=0;exitDy=0;fontStyle=1" parent="1" source="ihGcIfO41RnAnkwEPjgw-4" target="ihGcIfO41RnAnkwEPjgw-20" edge="1">
          <mxGeometry relative="1" as="geometry">
            <mxPoint x="-370" y="1406.17" as="sourcePoint" />
            <mxPoint x="10" y="1640.17" as="targetPoint" />
          </mxGeometry>
        </mxCell>
        <mxCell id="ihGcIfO41RnAnkwEPjgw-22" value="&lt;font style=&quot;font-size: 18px;&quot;&gt;Age&lt;/font&gt;" style="ellipse;whiteSpace=wrap;html=1;align=center;dashed=1;fontStyle=1;fontSize=18;fontFamily=Times New Roman;" parent="1" vertex="1">
          <mxGeometry x="-530" y="1590" width="110" height="40" as="geometry" />
        </mxCell>
        <mxCell id="ihGcIfO41RnAnkwEPjgw-23" value="" style="endArrow=none;html=1;rounded=0;exitX=0.25;exitY=1;exitDx=0;exitDy=0;entryX=0.63;entryY=-0.092;entryDx=0;entryDy=0;fontStyle=1;fontSize=18;entryPerimeter=0;fontFamily=Times New Roman;" parent="1" source="ihGcIfO41RnAnkwEPjgw-4" target="ihGcIfO41RnAnkwEPjgw-22" edge="1">
          <mxGeometry relative="1" as="geometry">
            <mxPoint x="-380.6500000000002" y="1350.17" as="sourcePoint" />
            <mxPoint x="-119.35000000000002" y="1271.17" as="targetPoint" />
          </mxGeometry>
        </mxCell>
        <mxCell id="ihGcIfO41RnAnkwEPjgw-24" value="&lt;font style=&quot;font-size: 18px;&quot;&gt;Address&lt;/font&gt;" style="ellipse;whiteSpace=wrap;html=1;align=center;fontStyle=1;fontSize=18;fontFamily=Times New Roman;" parent="1" vertex="1">
          <mxGeometry x="-360" y="1600" width="120" height="40" as="geometry" />
        </mxCell>
        <mxCell id="ihGcIfO41RnAnkwEPjgw-25" value="" style="endArrow=none;html=1;rounded=0;entryX=0.348;entryY=0.076;entryDx=0;entryDy=0;fontStyle=1;fontSize=18;entryPerimeter=0;exitX=0.584;exitY=1.003;exitDx=0;exitDy=0;exitPerimeter=0;fontFamily=Times New Roman;" parent="1" source="ihGcIfO41RnAnkwEPjgw-4" target="ihGcIfO41RnAnkwEPjgw-24" edge="1">
          <mxGeometry relative="1" as="geometry">
            <mxPoint x="-390" y="1450" as="sourcePoint" />
            <mxPoint x="-250" y="1860.17" as="targetPoint" />
          </mxGeometry>
        </mxCell>
        <mxCell id="ihGcIfO41RnAnkwEPjgw-26" value="" style="endArrow=none;html=1;rounded=0;entryX=0.5;entryY=1;entryDx=0;entryDy=0;fontStyle=1;fontSize=18;fontFamily=Times New Roman;" parent="1" target="ihGcIfO41RnAnkwEPjgw-9" edge="1">
          <mxGeometry relative="1" as="geometry">
            <mxPoint x="-450" y="1410" as="sourcePoint" />
            <mxPoint x="-400" y="1739.17" as="targetPoint" />
          </mxGeometry>
        </mxCell>
        <mxCell id="ihGcIfO41RnAnkwEPjgw-27" value="&lt;font style=&quot;font-size: 18px;&quot;&gt;Admin&lt;/font&gt;" style="whiteSpace=wrap;html=1;align=center;fontStyle=1;fontSize=18;fontFamily=Times New Roman;" parent="1" vertex="1">
          <mxGeometry x="-453" y="2268" width="103" height="40" as="geometry" />
        </mxCell>
        <mxCell id="ihGcIfO41RnAnkwEPjgw-28" value="" style="endArrow=none;html=1;rounded=0;exitX=1;exitY=1;exitDx=0;exitDy=0;fontStyle=1;fontSize=18;entryX=0.25;entryY=0;entryDx=0;entryDy=0;fontFamily=Times New Roman;" parent="1" source="ihGcIfO41RnAnkwEPjgw-37" target="ihGcIfO41RnAnkwEPjgw-27" edge="1">
          <mxGeometry relative="1" as="geometry">
            <mxPoint x="-504.6999999999998" y="2195.52" as="sourcePoint" />
            <mxPoint x="-425" y="2236" as="targetPoint" />
          </mxGeometry>
        </mxCell>
        <mxCell id="ihGcIfO41RnAnkwEPjgw-29" value="" style="endArrow=none;html=1;rounded=0;exitX=1;exitY=0;exitDx=0;exitDy=0;entryX=0.25;entryY=1;entryDx=0;entryDy=0;fontStyle=1;fontSize=18;fontFamily=Times New Roman;" parent="1" source="ihGcIfO41RnAnkwEPjgw-38" target="ihGcIfO41RnAnkwEPjgw-27" edge="1">
          <mxGeometry relative="1" as="geometry">
            <mxPoint x="-423" y="2188" as="sourcePoint" />
            <mxPoint x="-463" y="2248" as="targetPoint" />
          </mxGeometry>
        </mxCell>
        <mxCell id="ihGcIfO41RnAnkwEPjgw-30" value="&lt;font style=&quot;font-size: 18px;&quot;&gt;Address&lt;/font&gt;" style="ellipse;whiteSpace=wrap;html=1;align=center;fontStyle=1;fontFamily=Times New Roman;fontSize=18;" parent="1" vertex="1">
          <mxGeometry x="-333" y="2338" width="113" height="40" as="geometry" />
        </mxCell>
        <mxCell id="ihGcIfO41RnAnkwEPjgw-31" value="&lt;font style=&quot;font-size: 18px;&quot;&gt;Email&lt;/font&gt;" style="ellipse;whiteSpace=wrap;html=1;align=center;fontStyle=1;fontSize=18;fontFamily=Times New Roman;" parent="1" vertex="1">
          <mxGeometry x="-300" y="2190" width="110" height="40" as="geometry" />
        </mxCell>
        <mxCell id="ihGcIfO41RnAnkwEPjgw-32" value="&lt;font style=&quot;font-size: 18px;&quot;&gt;L_Name&lt;/font&gt;" style="ellipse;whiteSpace=wrap;html=1;align=center;fontStyle=1;fontSize=18;fontFamily=Times New Roman;" parent="1" vertex="1">
          <mxGeometry x="-737" y="2320" width="107" height="40" as="geometry" />
        </mxCell>
        <mxCell id="ihGcIfO41RnAnkwEPjgw-33" value="&lt;font style=&quot;font-size: 18px;&quot;&gt;F_Name&lt;/font&gt;" style="ellipse;whiteSpace=wrap;html=1;align=center;fontStyle=1;fontSize=18;fontFamily=Times New Roman;" parent="1" vertex="1">
          <mxGeometry x="-745.65" y="2212.83" width="115.65" height="40" as="geometry" />
        </mxCell>
        <mxCell id="ihGcIfO41RnAnkwEPjgw-34" value="" style="endArrow=none;html=1;rounded=0;entryX=0;entryY=0.5;entryDx=0;entryDy=0;exitX=1;exitY=0.5;exitDx=0;exitDy=0;fontStyle=1;fontSize=18;fontFamily=Times New Roman;" parent="1" source="ihGcIfO41RnAnkwEPjgw-36" target="ihGcIfO41RnAnkwEPjgw-27" edge="1">
          <mxGeometry relative="1" as="geometry">
            <mxPoint x="-543" y="2228" as="sourcePoint" />
            <mxPoint x="-503" y="2257.58" as="targetPoint" />
          </mxGeometry>
        </mxCell>
        <mxCell id="ihGcIfO41RnAnkwEPjgw-35" value="" style="endArrow=none;html=1;rounded=0;entryX=0.256;entryY=0.11;entryDx=0;entryDy=0;entryPerimeter=0;exitX=0.75;exitY=1;exitDx=0;exitDy=0;fontStyle=1;fontSize=18;fontFamily=Times New Roman;" parent="1" source="ihGcIfO41RnAnkwEPjgw-27" target="ihGcIfO41RnAnkwEPjgw-30" edge="1">
          <mxGeometry relative="1" as="geometry">
            <mxPoint x="-423" y="2228" as="sourcePoint" />
            <mxPoint x="-352.1999999999998" y="2203.84" as="targetPoint" />
          </mxGeometry>
        </mxCell>
        <mxCell id="ihGcIfO41RnAnkwEPjgw-36" value="&lt;font style=&quot;font-size: 18px;&quot;&gt;Name&lt;/font&gt;" style="ellipse;whiteSpace=wrap;html=1;align=center;fontStyle=1;fontSize=18;fontFamily=Times New Roman;" parent="1" vertex="1">
          <mxGeometry x="-620" y="2266" width="110" height="42" as="geometry" />
        </mxCell>
        <mxCell id="ihGcIfO41RnAnkwEPjgw-37" value="&lt;font style=&quot;font-size: 18px;&quot;&gt;Admin_ID&lt;/font&gt;" style="ellipse;whiteSpace=wrap;html=1;align=center;fontStyle=5;fontSize=18;fontFamily=Times New Roman;" parent="1" vertex="1">
          <mxGeometry x="-620" y="2160" width="130" height="40" as="geometry" />
        </mxCell>
        <mxCell id="ihGcIfO41RnAnkwEPjgw-38" value="&lt;font style=&quot;font-size: 18px;&quot;&gt;A_Password&lt;/font&gt;" style="ellipse;whiteSpace=wrap;html=1;align=center;fontStyle=1;fontFamily=Times New Roman;fontSize=18;" parent="1" vertex="1">
          <mxGeometry x="-603" y="2360" width="123" height="40" as="geometry" />
        </mxCell>
        <mxCell id="ihGcIfO41RnAnkwEPjgw-39" value="&lt;font style=&quot;font-size: 18px;&quot;&gt;A_Phone_No&lt;/font&gt;" style="ellipse;shape=doubleEllipse;margin=3;whiteSpace=wrap;html=1;align=center;fontStyle=1;fontSize=18;fontFamily=Times New Roman;" parent="1" vertex="1">
          <mxGeometry x="-313" y="2130" width="143" height="40" as="geometry" />
        </mxCell>
        <mxCell id="ihGcIfO41RnAnkwEPjgw-40" value="" style="endArrow=none;html=1;rounded=0;entryX=0.238;entryY=0.949;entryDx=0;entryDy=0;entryPerimeter=0;exitX=1;exitY=0;exitDx=0;exitDy=0;fontStyle=1;fontSize=18;fontFamily=Times New Roman;" parent="1" source="ihGcIfO41RnAnkwEPjgw-27" target="ihGcIfO41RnAnkwEPjgw-31" edge="1">
          <mxGeometry relative="1" as="geometry">
            <mxPoint x="-473" y="2298" as="sourcePoint" />
            <mxPoint x="-313" y="2298" as="targetPoint" />
          </mxGeometry>
        </mxCell>
        <mxCell id="ihGcIfO41RnAnkwEPjgw-41" value="" style="endArrow=none;html=1;rounded=0;entryX=0;entryY=1;entryDx=0;entryDy=0;exitX=0.75;exitY=0;exitDx=0;exitDy=0;fontStyle=1;fontSize=18;fontFamily=Times New Roman;" parent="1" source="ihGcIfO41RnAnkwEPjgw-27" target="ihGcIfO41RnAnkwEPjgw-39" edge="1">
          <mxGeometry relative="1" as="geometry">
            <mxPoint x="-393" y="2277.17" as="sourcePoint" />
            <mxPoint x="-233" y="2277.17" as="targetPoint" />
          </mxGeometry>
        </mxCell>
        <mxCell id="ihGcIfO41RnAnkwEPjgw-42" value="" style="endArrow=none;html=1;rounded=0;entryX=0.055;entryY=0.224;entryDx=0;entryDy=0;exitX=1;exitY=1;exitDx=0;exitDy=0;fontStyle=1;fontSize=18;entryPerimeter=0;fontFamily=Times New Roman;" parent="1" source="ihGcIfO41RnAnkwEPjgw-33" target="ihGcIfO41RnAnkwEPjgw-36" edge="1">
          <mxGeometry relative="1" as="geometry">
            <mxPoint x="-713" y="2308" as="sourcePoint" />
            <mxPoint x="-553" y="2308" as="targetPoint" />
          </mxGeometry>
        </mxCell>
        <mxCell id="ihGcIfO41RnAnkwEPjgw-43" value="" style="endArrow=none;html=1;rounded=0;exitX=0.055;exitY=0.694;exitDx=0;exitDy=0;exitPerimeter=0;entryX=1;entryY=0;entryDx=0;entryDy=0;fontStyle=1;fontSize=18;fontFamily=Times New Roman;" parent="1" source="ihGcIfO41RnAnkwEPjgw-36" target="ihGcIfO41RnAnkwEPjgw-32" edge="1">
          <mxGeometry relative="1" as="geometry">
            <mxPoint x="-623" y="2378" as="sourcePoint" />
            <mxPoint x="-463" y="2378" as="targetPoint" />
          </mxGeometry>
        </mxCell>
        <mxCell id="ihGcIfO41RnAnkwEPjgw-47" value="&lt;font style=&quot;font-size: 18px;&quot;&gt;Unregistered Customer&lt;/font&gt;" style="whiteSpace=wrap;html=1;align=center;fontStyle=1;fontSize=18;fontFamily=Times New Roman;" parent="1" vertex="1">
          <mxGeometry x="920.03" y="2638" width="139.98" height="40" as="geometry" />
        </mxCell>
        <mxCell id="ihGcIfO41RnAnkwEPjgw-49" value="&lt;font style=&quot;font-size: 18px;&quot;&gt;Email&lt;/font&gt;" style="ellipse;whiteSpace=wrap;html=1;align=center;fontStyle=1;fontSize=18;fontFamily=Times New Roman;" parent="1" vertex="1">
          <mxGeometry x="885.05" y="2760" width="129.98" height="40" as="geometry" />
        </mxCell>
        <mxCell id="ihGcIfO41RnAnkwEPjgw-50" value="&lt;font style=&quot;font-size: 18px;&quot;&gt;Name&lt;/font&gt;" style="ellipse;whiteSpace=wrap;html=1;align=center;fontStyle=1;fontSize=18;fontFamily=Times New Roman;" parent="1" vertex="1">
          <mxGeometry x="760" y="2640" width="120.02" height="40" as="geometry" />
        </mxCell>
        <mxCell id="ihGcIfO41RnAnkwEPjgw-53" value="" style="endArrow=none;html=1;rounded=0;exitX=1;exitY=0.5;exitDx=0;exitDy=0;entryX=0;entryY=0.5;entryDx=0;entryDy=0;fontStyle=1;fontSize=18;fontFamily=Times New Roman;" parent="1" source="ihGcIfO41RnAnkwEPjgw-50" target="ihGcIfO41RnAnkwEPjgw-47" edge="1">
          <mxGeometry relative="1" as="geometry">
            <mxPoint x="1020.02" y="2740" as="sourcePoint" />
            <mxPoint x="1180.02" y="2740" as="targetPoint" />
          </mxGeometry>
        </mxCell>
        <mxCell id="ihGcIfO41RnAnkwEPjgw-55" value="" style="endArrow=none;html=1;rounded=0;exitX=0.25;exitY=1;exitDx=0;exitDy=0;fontStyle=1;fontSize=18;entryX=0.36;entryY=0;entryDx=0;entryDy=0;entryPerimeter=0;fontFamily=Times New Roman;" parent="1" source="ihGcIfO41RnAnkwEPjgw-47" target="ihGcIfO41RnAnkwEPjgw-49" edge="1">
          <mxGeometry relative="1" as="geometry">
            <mxPoint x="1020.02" y="2740" as="sourcePoint" />
            <mxPoint x="1180.02" y="2740" as="targetPoint" />
          </mxGeometry>
        </mxCell>
        <mxCell id="ihGcIfO41RnAnkwEPjgw-56" value="&lt;font style=&quot;font-size: 18px;&quot;&gt;P_Phone_No&lt;/font&gt;" style="ellipse;shape=doubleEllipse;margin=3;whiteSpace=wrap;html=1;align=center;fontStyle=1;fontSize=18;fontFamily=Times New Roman;" parent="1" vertex="1">
          <mxGeometry x="710" y="2730" width="170.02" height="40" as="geometry" />
        </mxCell>
        <mxCell id="ihGcIfO41RnAnkwEPjgw-57" value="" style="endArrow=none;html=1;rounded=0;exitX=0;exitY=1;exitDx=0;exitDy=0;entryX=1;entryY=0;entryDx=0;entryDy=0;fontStyle=1;fontSize=18;fontFamily=Times New Roman;" parent="1" source="ihGcIfO41RnAnkwEPjgw-47" target="ihGcIfO41RnAnkwEPjgw-56" edge="1">
          <mxGeometry relative="1" as="geometry">
            <mxPoint x="1020.02" y="2740" as="sourcePoint" />
            <mxPoint x="1180.02" y="2740" as="targetPoint" />
          </mxGeometry>
        </mxCell>
        <mxCell id="ihGcIfO41RnAnkwEPjgw-58" value="" style="endArrow=none;html=1;rounded=0;exitX=1;exitY=0.5;exitDx=0;exitDy=0;entryX=0;entryY=0;entryDx=0;entryDy=0;fontStyle=1;fontSize=18;fontFamily=Times New Roman;" parent="1" source="ihGcIfO41RnAnkwEPjgw-60" target="ihGcIfO41RnAnkwEPjgw-50" edge="1">
          <mxGeometry relative="1" as="geometry">
            <mxPoint x="570.02" y="2830" as="sourcePoint" />
            <mxPoint x="730.02" y="2830" as="targetPoint" />
          </mxGeometry>
        </mxCell>
        <mxCell id="ihGcIfO41RnAnkwEPjgw-59" value="&lt;font style=&quot;font-size: 18px;&quot;&gt;L_Name&lt;/font&gt;" style="ellipse;whiteSpace=wrap;html=1;align=center;fontStyle=1;fontSize=18;fontFamily=Times New Roman;" parent="1" vertex="1">
          <mxGeometry x="610" y="2678" width="130.02" height="40" as="geometry" />
        </mxCell>
        <mxCell id="ihGcIfO41RnAnkwEPjgw-60" value="&lt;font style=&quot;font-size: 18px;&quot;&gt;F_Name&lt;/font&gt;" style="ellipse;whiteSpace=wrap;html=1;align=center;fontStyle=1;fontSize=18;fontFamily=Times New Roman;" parent="1" vertex="1">
          <mxGeometry x="615" y="2600" width="120.02" height="40" as="geometry" />
        </mxCell>
        <mxCell id="ihGcIfO41RnAnkwEPjgw-61" value="" style="endArrow=none;html=1;rounded=0;entryX=0;entryY=1;entryDx=0;entryDy=0;exitX=1;exitY=0.5;exitDx=0;exitDy=0;fontStyle=1;fontSize=18;fontFamily=Times New Roman;" parent="1" source="ihGcIfO41RnAnkwEPjgw-59" target="ihGcIfO41RnAnkwEPjgw-50" edge="1">
          <mxGeometry relative="1" as="geometry">
            <mxPoint x="680.02" y="2730" as="sourcePoint" />
            <mxPoint x="840.02" y="2730" as="targetPoint" />
          </mxGeometry>
        </mxCell>
        <mxCell id="ihGcIfO41RnAnkwEPjgw-62" value="&lt;font style=&quot;font-size: 18px;&quot;&gt;NIC&lt;/font&gt;" style="ellipse;whiteSpace=wrap;html=1;align=center;fontStyle=5;fontSize=18;fontFamily=Times New Roman;" parent="1" vertex="1">
          <mxGeometry x="1020" y="2740" width="130" height="40" as="geometry" />
        </mxCell>
        <mxCell id="ihGcIfO41RnAnkwEPjgw-63" value="" style="endArrow=none;html=1;rounded=0;entryX=0.75;entryY=1;entryDx=0;entryDy=0;fontStyle=1;fontSize=18;exitX=0.333;exitY=-0.003;exitDx=0;exitDy=0;exitPerimeter=0;fontFamily=Times New Roman;" parent="1" source="ihGcIfO41RnAnkwEPjgw-62" target="ihGcIfO41RnAnkwEPjgw-47" edge="1">
          <mxGeometry relative="1" as="geometry">
            <mxPoint x="1190.02" y="2800" as="sourcePoint" />
            <mxPoint x="1240.02" y="2820" as="targetPoint" />
          </mxGeometry>
        </mxCell>
        <mxCell id="ihGcIfO41RnAnkwEPjgw-64" value="&lt;font style=&quot;font-size: 18px;&quot;&gt;Address&lt;/font&gt;" style="ellipse;whiteSpace=wrap;html=1;align=center;fontStyle=1;fontSize=18;fontFamily=Times New Roman;" parent="1" vertex="1">
          <mxGeometry x="1100" y="2690" width="140" height="40" as="geometry" />
        </mxCell>
        <mxCell id="ihGcIfO41RnAnkwEPjgw-65" value="" style="endArrow=none;html=1;rounded=0;entryX=0;entryY=0;entryDx=0;entryDy=0;exitX=1;exitY=1;exitDx=0;exitDy=0;fontStyle=1;fontSize=18;fontFamily=Times New Roman;" parent="1" source="ihGcIfO41RnAnkwEPjgw-47" target="ihGcIfO41RnAnkwEPjgw-64" edge="1">
          <mxGeometry relative="1" as="geometry">
            <mxPoint x="1110.02" y="2690" as="sourcePoint" />
            <mxPoint x="1480.02" y="2880" as="targetPoint" />
          </mxGeometry>
        </mxCell>
        <mxCell id="ihGcIfO41RnAnkwEPjgw-70" value="" style="endArrow=none;html=1;rounded=0;entryX=0.5;entryY=0;entryDx=0;entryDy=0;exitX=0.5;exitY=1;exitDx=0;exitDy=0;fontStyle=1;fontFamily=Times New Roman;fontSize=18;" parent="1" source="ihGcIfO41RnAnkwEPjgw-72" target="ihGcIfO41RnAnkwEPjgw-47" edge="1">
          <mxGeometry relative="1" as="geometry">
            <mxPoint x="1000.0000000000005" y="2560" as="sourcePoint" />
            <mxPoint x="-230" y="1890" as="targetPoint" />
          </mxGeometry>
        </mxCell>
        <mxCell id="ihGcIfO41RnAnkwEPjgw-71" value="&lt;span style=&quot;font-size: 18px;&quot;&gt;&lt;font style=&quot;font-size: 18px;&quot;&gt;M&lt;/font&gt;&lt;/span&gt;" style="resizable=0;html=1;align=right;verticalAlign=bottom;fontStyle=1;fontFamily=Times New Roman;fontSize=18;" parent="ihGcIfO41RnAnkwEPjgw-70" connectable="0" vertex="1">
          <mxGeometry x="1" relative="1" as="geometry">
            <mxPoint x="-10" y="-10" as="offset" />
          </mxGeometry>
        </mxCell>
        <mxCell id="ihGcIfO41RnAnkwEPjgw-72" value="&lt;font style=&quot;font-size: 18px;&quot;&gt;&lt;span style=&quot;font-size: 18px;&quot;&gt;Do&lt;/span&gt;&lt;/font&gt;" style="shape=rhombus;perimeter=rhombusPerimeter;whiteSpace=wrap;html=1;align=center;fontStyle=1;fontFamily=Times New Roman;fontSize=18;" parent="1" vertex="1">
          <mxGeometry x="930.02" y="2420" width="120" height="60" as="geometry" />
        </mxCell>
        <mxCell id="ihGcIfO41RnAnkwEPjgw-73" value="&lt;span style=&quot;font-size: 18px;&quot;&gt;Registration&lt;/span&gt;" style="whiteSpace=wrap;html=1;align=center;fontFamily=Times New Roman;fontSize=18;fontStyle=1" parent="1" vertex="1">
          <mxGeometry x="935.02" y="2258" width="134.98" height="40" as="geometry" />
        </mxCell>
        <mxCell id="ihGcIfO41RnAnkwEPjgw-74" value="" style="endArrow=none;html=1;rounded=0;fontFamily=Times New Roman;fontSize=18;exitX=0.5;exitY=0;exitDx=0;exitDy=0;entryX=0.5;entryY=1;entryDx=0;entryDy=0;fontStyle=1" parent="1" source="ihGcIfO41RnAnkwEPjgw-72" target="ihGcIfO41RnAnkwEPjgw-73" edge="1">
          <mxGeometry relative="1" as="geometry">
            <mxPoint x="300.02" y="2180.17" as="sourcePoint" />
            <mxPoint x="990" y="2230" as="targetPoint" />
          </mxGeometry>
        </mxCell>
        <mxCell id="ihGcIfO41RnAnkwEPjgw-75" value="&lt;span style=&quot;font-size: 18px;&quot;&gt;1&lt;/span&gt;" style="resizable=0;html=1;align=right;verticalAlign=bottom;fontFamily=Times New Roman;fontSize=18;fontStyle=1" parent="ihGcIfO41RnAnkwEPjgw-74" connectable="0" vertex="1">
          <mxGeometry x="1" relative="1" as="geometry">
            <mxPoint x="-10" y="40" as="offset" />
          </mxGeometry>
        </mxCell>
        <mxCell id="ihGcIfO41RnAnkwEPjgw-76" value="&lt;span style=&quot;font-size: 18px;&quot;&gt;Create&lt;/span&gt;" style="shape=rhombus;perimeter=rhombusPerimeter;whiteSpace=wrap;html=1;align=center;fontFamily=Times New Roman;fontSize=18;fontStyle=1" parent="1" vertex="1">
          <mxGeometry x="630.02" y="2250" width="120" height="60" as="geometry" />
        </mxCell>
        <mxCell id="ihGcIfO41RnAnkwEPjgw-77" value="&lt;span style=&quot;font-size: 18px;&quot;&gt;Profile&lt;/span&gt;" style="whiteSpace=wrap;html=1;align=center;fontFamily=Times New Roman;fontSize=18;fontStyle=1" parent="1" vertex="1">
          <mxGeometry x="300" y="2262.83" width="100" height="40" as="geometry" />
        </mxCell>
        <mxCell id="ihGcIfO41RnAnkwEPjgw-78" value="&lt;span style=&quot;font-size: 18px;&quot;&gt;Manage&lt;/span&gt;" style="shape=rhombus;perimeter=rhombusPerimeter;whiteSpace=wrap;html=1;align=center;fontFamily=Times New Roman;fontSize=18;fontStyle=1" parent="1" vertex="1">
          <mxGeometry x="-30" y="2252.83" width="120" height="60" as="geometry" />
        </mxCell>
        <mxCell id="ihGcIfO41RnAnkwEPjgw-79" value="&lt;span style=&quot;font-size: 18px;&quot;&gt;Login&lt;/span&gt;" style="whiteSpace=wrap;html=1;align=center;fontFamily=Times New Roman;fontSize=18;fontStyle=1" parent="1" vertex="1">
          <mxGeometry x="-480" y="1954" width="127" height="46" as="geometry" />
        </mxCell>
        <mxCell id="ihGcIfO41RnAnkwEPjgw-81" value="&lt;span style=&quot;font-size: 18px;&quot;&gt;Manage&lt;/span&gt;" style="shape=rhombus;perimeter=rhombusPerimeter;whiteSpace=wrap;html=1;align=center;fontFamily=Times New Roman;fontSize=18;fontStyle=1" parent="1" vertex="1">
          <mxGeometry x="-463" y="2128" width="120" height="60" as="geometry" />
        </mxCell>
        <mxCell id="ihGcIfO41RnAnkwEPjgw-83" value="&lt;span style=&quot;font-size: 18px;&quot;&gt;Can&lt;/span&gt;" style="shape=rhombus;perimeter=rhombusPerimeter;whiteSpace=wrap;html=1;align=center;fontFamily=Times New Roman;fontSize=18;fontStyle=1" parent="1" vertex="1">
          <mxGeometry x="-460" y="1650" width="120" height="60" as="geometry" />
        </mxCell>
        <mxCell id="ihGcIfO41RnAnkwEPjgw-84" value="" style="endArrow=none;html=1;rounded=0;fontFamily=Times New Roman;fontSize=18;exitX=0;exitY=0.5;exitDx=0;exitDy=0;entryX=1;entryY=0.5;entryDx=0;entryDy=0;fontStyle=1" parent="1" source="ihGcIfO41RnAnkwEPjgw-76" target="ihGcIfO41RnAnkwEPjgw-77" edge="1">
          <mxGeometry relative="1" as="geometry">
            <mxPoint x="260.02" y="2060.17" as="sourcePoint" />
            <mxPoint x="420.02" y="2060.17" as="targetPoint" />
          </mxGeometry>
        </mxCell>
        <mxCell id="ihGcIfO41RnAnkwEPjgw-85" value="&lt;span style=&quot;font-size: 18px;&quot;&gt;1&lt;/span&gt;" style="resizable=0;html=1;align=right;verticalAlign=bottom;fontFamily=Times New Roman;fontSize=18;fontStyle=1" parent="ihGcIfO41RnAnkwEPjgw-84" connectable="0" vertex="1">
          <mxGeometry x="1" relative="1" as="geometry">
            <mxPoint x="26" y="-10" as="offset" />
          </mxGeometry>
        </mxCell>
        <mxCell id="ihGcIfO41RnAnkwEPjgw-86" value="" style="endArrow=none;html=1;rounded=0;fontFamily=Times New Roman;fontSize=18;entryX=0;entryY=0.5;entryDx=0;entryDy=0;exitX=1;exitY=0.5;exitDx=0;exitDy=0;fontStyle=1" parent="1" source="ihGcIfO41RnAnkwEPjgw-76" target="ihGcIfO41RnAnkwEPjgw-73" edge="1">
          <mxGeometry relative="1" as="geometry">
            <mxPoint x="260.02" y="2060.17" as="sourcePoint" />
            <mxPoint x="420.02" y="2060.17" as="targetPoint" />
          </mxGeometry>
        </mxCell>
        <mxCell id="ihGcIfO41RnAnkwEPjgw-87" value="&lt;span style=&quot;font-size: 18px;&quot;&gt;1&lt;/span&gt;" style="resizable=0;html=1;align=right;verticalAlign=bottom;fontFamily=Times New Roman;fontSize=18;fontStyle=1" parent="ihGcIfO41RnAnkwEPjgw-86" connectable="0" vertex="1">
          <mxGeometry x="1" relative="1" as="geometry">
            <mxPoint x="-20" y="-10" as="offset" />
          </mxGeometry>
        </mxCell>
        <mxCell id="ihGcIfO41RnAnkwEPjgw-88" value="" style="endArrow=none;html=1;rounded=0;fontFamily=Times New Roman;fontSize=18;exitX=0;exitY=0.5;exitDx=0;exitDy=0;entryX=1;entryY=0.5;entryDx=0;entryDy=0;fontStyle=1" parent="1" source="ihGcIfO41RnAnkwEPjgw-78" target="ihGcIfO41RnAnkwEPjgw-27" edge="1">
          <mxGeometry relative="1" as="geometry">
            <mxPoint x="-120" y="1900" as="sourcePoint" />
            <mxPoint x="40" y="1900" as="targetPoint" />
          </mxGeometry>
        </mxCell>
        <mxCell id="ihGcIfO41RnAnkwEPjgw-89" value="&lt;span style=&quot;font-size: 18px;&quot;&gt;1&lt;/span&gt;" style="resizable=0;html=1;align=right;verticalAlign=bottom;fontFamily=Times New Roman;fontSize=18;fontStyle=1" parent="ihGcIfO41RnAnkwEPjgw-88" connectable="0" vertex="1">
          <mxGeometry x="1" relative="1" as="geometry">
            <mxPoint x="20" as="offset" />
          </mxGeometry>
        </mxCell>
        <mxCell id="ihGcIfO41RnAnkwEPjgw-90" value="" style="endArrow=none;html=1;rounded=0;fontFamily=Times New Roman;fontSize=18;entryX=0;entryY=0.5;entryDx=0;entryDy=0;exitX=1;exitY=0.5;exitDx=0;exitDy=0;fontStyle=1" parent="1" source="ihGcIfO41RnAnkwEPjgw-78" target="ihGcIfO41RnAnkwEPjgw-77" edge="1">
          <mxGeometry relative="1" as="geometry">
            <mxPoint x="-120" y="1900" as="sourcePoint" />
            <mxPoint x="40" y="1900" as="targetPoint" />
          </mxGeometry>
        </mxCell>
        <mxCell id="ihGcIfO41RnAnkwEPjgw-91" value="&lt;span style=&quot;font-size: 18px;&quot;&gt;M&lt;/span&gt;" style="resizable=0;html=1;align=right;verticalAlign=bottom;fontFamily=Times New Roman;fontSize=18;fontStyle=1" parent="ihGcIfO41RnAnkwEPjgw-90" connectable="0" vertex="1">
          <mxGeometry x="1" relative="1" as="geometry">
            <mxPoint x="-14" y="-10" as="offset" />
          </mxGeometry>
        </mxCell>
        <mxCell id="ihGcIfO41RnAnkwEPjgw-93" value="" style="endArrow=none;html=1;rounded=0;fontFamily=Times New Roman;fontSize=18;exitX=0.5;exitY=1;exitDx=0;exitDy=0;entryX=0.5;entryY=0;entryDx=0;entryDy=0;fontStyle=1" parent="1" source="ihGcIfO41RnAnkwEPjgw-81" target="ihGcIfO41RnAnkwEPjgw-27" edge="1">
          <mxGeometry relative="1" as="geometry">
            <mxPoint x="-120" y="1940.17" as="sourcePoint" />
            <mxPoint x="-300" y="2070.17" as="targetPoint" />
          </mxGeometry>
        </mxCell>
        <mxCell id="ihGcIfO41RnAnkwEPjgw-94" value="&lt;span style=&quot;font-size: 18px;&quot;&gt;1&lt;/span&gt;" style="resizable=0;html=1;align=right;verticalAlign=bottom;fontFamily=Times New Roman;fontSize=18;fontStyle=1" parent="ihGcIfO41RnAnkwEPjgw-93" connectable="0" vertex="1">
          <mxGeometry x="1" relative="1" as="geometry">
            <mxPoint x="-10" y="-11" as="offset" />
          </mxGeometry>
        </mxCell>
        <mxCell id="ihGcIfO41RnAnkwEPjgw-95" value="" style="endArrow=none;html=1;rounded=0;fontFamily=Times New Roman;fontSize=18;exitX=0.5;exitY=0;exitDx=0;exitDy=0;entryX=0.63;entryY=1.043;entryDx=0;entryDy=0;fontStyle=1;entryPerimeter=0;" parent="1" source="ihGcIfO41RnAnkwEPjgw-81" target="ihGcIfO41RnAnkwEPjgw-79" edge="1">
          <mxGeometry relative="1" as="geometry">
            <mxPoint x="-120" y="1940.17" as="sourcePoint" />
            <mxPoint x="40" y="1940.17" as="targetPoint" />
          </mxGeometry>
        </mxCell>
        <mxCell id="ihGcIfO41RnAnkwEPjgw-96" value="&lt;span style=&quot;font-size: 18px;&quot;&gt;M&lt;/span&gt;" style="resizable=0;html=1;align=right;verticalAlign=bottom;fontFamily=Times New Roman;fontSize=18;fontStyle=1" parent="ihGcIfO41RnAnkwEPjgw-95" connectable="0" vertex="1">
          <mxGeometry x="1" relative="1" as="geometry">
            <mxPoint x="-10" y="31" as="offset" />
          </mxGeometry>
        </mxCell>
        <mxCell id="ihGcIfO41RnAnkwEPjgw-97" value="" style="endArrow=none;html=1;rounded=0;fontFamily=Times New Roman;fontSize=18;exitX=0.5;exitY=1;exitDx=0;exitDy=0;entryX=0.614;entryY=0.022;entryDx=0;entryDy=0;fontStyle=1;entryPerimeter=0;" parent="1" source="ihGcIfO41RnAnkwEPjgw-83" target="ihGcIfO41RnAnkwEPjgw-79" edge="1">
          <mxGeometry relative="1" as="geometry">
            <mxPoint x="-120" y="1710.17" as="sourcePoint" />
            <mxPoint x="40" y="1710.17" as="targetPoint" />
          </mxGeometry>
        </mxCell>
        <mxCell id="ihGcIfO41RnAnkwEPjgw-98" value="&lt;span style=&quot;font-size: 18px;&quot;&gt;M&lt;/span&gt;" style="resizable=0;html=1;align=right;verticalAlign=bottom;fontFamily=Times New Roman;fontSize=18;fontStyle=1" parent="ihGcIfO41RnAnkwEPjgw-97" connectable="0" vertex="1">
          <mxGeometry x="1" relative="1" as="geometry">
            <mxPoint x="-10" y="-10" as="offset" />
          </mxGeometry>
        </mxCell>
        <mxCell id="ihGcIfO41RnAnkwEPjgw-99" value="" style="endArrow=none;html=1;rounded=0;fontFamily=Times New Roman;fontSize=18;exitX=0.5;exitY=0;exitDx=0;exitDy=0;entryX=0.459;entryY=1.033;entryDx=0;entryDy=0;entryPerimeter=0;fontStyle=1" parent="1" source="ihGcIfO41RnAnkwEPjgw-83" target="ihGcIfO41RnAnkwEPjgw-4" edge="1">
          <mxGeometry relative="1" as="geometry">
            <mxPoint x="-220" y="1710.17" as="sourcePoint" />
            <mxPoint x="-380" y="1450" as="targetPoint" />
          </mxGeometry>
        </mxCell>
        <mxCell id="ihGcIfO41RnAnkwEPjgw-100" value="&lt;span style=&quot;font-size: 18px;&quot;&gt;1&lt;/span&gt;" style="resizable=0;html=1;align=right;verticalAlign=bottom;fontFamily=Times New Roman;fontSize=18;fontStyle=1" parent="ihGcIfO41RnAnkwEPjgw-99" connectable="0" vertex="1">
          <mxGeometry x="1" relative="1" as="geometry">
            <mxPoint x="-10" y="31" as="offset" />
          </mxGeometry>
        </mxCell>
        <mxCell id="ihGcIfO41RnAnkwEPjgw-104" value="Feedback" style="shape=ext;margin=3;double=1;whiteSpace=wrap;html=1;align=center;fontStyle=1;fontSize=18;fontFamily=Times New Roman;" parent="1" vertex="1">
          <mxGeometry x="-770" y="770" width="140" height="40" as="geometry" />
        </mxCell>
        <mxCell id="ihGcIfO41RnAnkwEPjgw-105" value="&lt;font style=&quot;font-size: 18px;&quot;&gt;Message&lt;/font&gt;" style="ellipse;whiteSpace=wrap;html=1;align=center;fontStyle=1;fontSize=18;fontFamily=Times New Roman;" parent="1" vertex="1">
          <mxGeometry x="-620" y="690" width="130" height="40" as="geometry" />
        </mxCell>
        <mxCell id="ihGcIfO41RnAnkwEPjgw-106" value="&lt;font style=&quot;font-size: 18px;&quot;&gt;Feedback_No&lt;/font&gt;" style="ellipse;whiteSpace=wrap;html=1;align=center;fontStyle=5;fontSize=18;fontFamily=Times New Roman;" parent="1" vertex="1">
          <mxGeometry x="-915.5" y="690" width="145.5" height="40" as="geometry" />
        </mxCell>
        <mxCell id="ihGcIfO41RnAnkwEPjgw-107" value="&lt;span style=&quot;border-bottom: 1px dotted; font-size: 18px;&quot;&gt;&lt;font style=&quot;font-size: 18px;&quot;&gt;Customer_ID&lt;/font&gt;&lt;/span&gt;" style="ellipse;whiteSpace=wrap;html=1;align=center;fontStyle=1;fontFamily=Times New Roman;fontSize=18;" parent="1" vertex="1">
          <mxGeometry x="-775.25" y="670" width="144.5" height="40" as="geometry" />
        </mxCell>
        <mxCell id="ihGcIfO41RnAnkwEPjgw-108" value="" style="endArrow=none;html=1;rounded=0;entryX=0;entryY=0;entryDx=0;entryDy=0;fontStyle=1;fontSize=18;exitX=1;exitY=1;exitDx=0;exitDy=0;fontFamily=Times New Roman;" parent="1" source="ihGcIfO41RnAnkwEPjgw-106" target="ihGcIfO41RnAnkwEPjgw-104" edge="1">
          <mxGeometry relative="1" as="geometry">
            <mxPoint x="-814.5" y="309.70000000000005" as="sourcePoint" />
            <mxPoint x="-758.65" y="430.22" as="targetPoint" />
          </mxGeometry>
        </mxCell>
        <mxCell id="ihGcIfO41RnAnkwEPjgw-109" value="" style="endArrow=none;html=1;rounded=0;exitX=0.5;exitY=1;exitDx=0;exitDy=0;fontStyle=1;fontSize=18;fontFamily=Times New Roman;" parent="1" source="ihGcIfO41RnAnkwEPjgw-107" target="ihGcIfO41RnAnkwEPjgw-104" edge="1">
          <mxGeometry relative="1" as="geometry">
            <mxPoint x="-708.65" y="320.22" as="sourcePoint" />
            <mxPoint x="-578.65" y="329.39" as="targetPoint" />
          </mxGeometry>
        </mxCell>
        <mxCell id="ihGcIfO41RnAnkwEPjgw-110" value="" style="endArrow=none;html=1;rounded=0;entryX=0;entryY=1;entryDx=0;entryDy=0;exitX=1;exitY=0;exitDx=0;exitDy=0;fontStyle=1;fontSize=18;fontFamily=Times New Roman;" parent="1" source="ihGcIfO41RnAnkwEPjgw-104" target="ihGcIfO41RnAnkwEPjgw-105" edge="1">
          <mxGeometry relative="1" as="geometry">
            <mxPoint x="-668.65" y="349.39" as="sourcePoint" />
            <mxPoint x="-609.4499999999998" y="327.74" as="targetPoint" />
          </mxGeometry>
        </mxCell>
        <mxCell id="ihGcIfO41RnAnkwEPjgw-111" value="&lt;font style=&quot;font-size: 18px;&quot;&gt;Give&lt;/font&gt;" style="shape=rhombus;double=1;perimeter=rhombusPerimeter;whiteSpace=wrap;html=1;align=center;fontStyle=1;fontSize=18;fontFamily=Times New Roman;" parent="1" vertex="1">
          <mxGeometry x="-758.65" y="940" width="120" height="60" as="geometry" />
        </mxCell>
        <mxCell id="ihGcIfO41RnAnkwEPjgw-112" value="" style="shape=link;html=1;rounded=0;entryX=0.5;entryY=1;entryDx=0;entryDy=0;exitX=0.5;exitY=0;exitDx=0;exitDy=0;fontStyle=1;fontSize=18;fontFamily=Times New Roman;" parent="1" source="ihGcIfO41RnAnkwEPjgw-111" target="ihGcIfO41RnAnkwEPjgw-104" edge="1">
          <mxGeometry relative="1" as="geometry">
            <mxPoint x="-266" y="39.849999999999966" as="sourcePoint" />
            <mxPoint x="-106" y="39.849999999999966" as="targetPoint" />
          </mxGeometry>
        </mxCell>
        <mxCell id="ihGcIfO41RnAnkwEPjgw-113" value="&lt;font style=&quot;font-size: 18px;&quot;&gt;M&lt;/font&gt;" style="resizable=0;html=1;whiteSpace=wrap;align=right;verticalAlign=bottom;fontStyle=1;fontSize=18;fontFamily=Times New Roman;" parent="ihGcIfO41RnAnkwEPjgw-112" connectable="0" vertex="1">
          <mxGeometry x="1" relative="1" as="geometry">
            <mxPoint x="-10" y="30" as="offset" />
          </mxGeometry>
        </mxCell>
        <mxCell id="ihGcIfO41RnAnkwEPjgw-114" value="" style="endArrow=none;html=1;rounded=0;fontFamily=Times New Roman;fontSize=18;entryX=0.25;entryY=0;entryDx=0;entryDy=0;exitX=0.5;exitY=1;exitDx=0;exitDy=0;fontStyle=1" parent="1" source="ihGcIfO41RnAnkwEPjgw-111" target="ihGcIfO41RnAnkwEPjgw-4" edge="1">
          <mxGeometry relative="1" as="geometry">
            <mxPoint x="-30" y="1100" as="sourcePoint" />
            <mxPoint x="-430" y="1300" as="targetPoint" />
          </mxGeometry>
        </mxCell>
        <mxCell id="ihGcIfO41RnAnkwEPjgw-115" value="&lt;span style=&quot;font-size: 18px;&quot;&gt;1&lt;/span&gt;" style="resizable=0;html=1;align=right;verticalAlign=bottom;fontFamily=Times New Roman;fontSize=18;direction=south;fontStyle=1" parent="ihGcIfO41RnAnkwEPjgw-114" connectable="0" vertex="1">
          <mxGeometry x="1" relative="1" as="geometry">
            <mxPoint x="-28" y="-21" as="offset" />
          </mxGeometry>
        </mxCell>
        <mxCell id="ihGcIfO41RnAnkwEPjgw-117" value="&lt;span style=&quot;font-size: 18px;&quot;&gt;Route&lt;/span&gt;" style="whiteSpace=wrap;html=1;align=center;fontFamily=Times New Roman;fontSize=18;fontStyle=1" parent="1" vertex="1">
          <mxGeometry x="-397" y="585" width="100" height="40" as="geometry" />
        </mxCell>
        <mxCell id="ihGcIfO41RnAnkwEPjgw-118" value="&lt;span style=&quot;font-size: 18px;&quot;&gt;Book&lt;/span&gt;" style="shape=rhombus;perimeter=rhombusPerimeter;whiteSpace=wrap;html=1;align=center;fontFamily=Times New Roman;fontSize=18;fontStyle=1" parent="1" vertex="1">
          <mxGeometry x="-213" y="1160" width="120" height="60" as="geometry" />
        </mxCell>
        <mxCell id="ihGcIfO41RnAnkwEPjgw-119" value="&lt;span style=&quot;font-size: 18px;&quot;&gt;Has&lt;/span&gt;" style="shape=rhombus;perimeter=rhombusPerimeter;whiteSpace=wrap;html=1;align=center;fontFamily=Times New Roman;fontSize=18;fontStyle=1" parent="1" vertex="1">
          <mxGeometry x="40" y="710" width="120" height="60" as="geometry" />
        </mxCell>
        <mxCell id="ihGcIfO41RnAnkwEPjgw-120" value="" style="endArrow=none;html=1;rounded=0;fontFamily=Times New Roman;fontSize=18;entryX=0.75;entryY=0;entryDx=0;entryDy=0;exitX=0.5;exitY=1;exitDx=0;exitDy=0;fontStyle=1" parent="1" source="ihGcIfO41RnAnkwEPjgw-118" target="ihGcIfO41RnAnkwEPjgw-4" edge="1">
          <mxGeometry relative="1" as="geometry">
            <mxPoint x="-360" y="1070" as="sourcePoint" />
            <mxPoint x="-20" y="1080" as="targetPoint" />
          </mxGeometry>
        </mxCell>
        <mxCell id="ihGcIfO41RnAnkwEPjgw-121" value="&lt;span style=&quot;font-size: 18px;&quot;&gt;1&lt;/span&gt;" style="resizable=0;html=1;align=right;verticalAlign=bottom;fontFamily=Times New Roman;fontSize=18;fontStyle=1" parent="ihGcIfO41RnAnkwEPjgw-120" connectable="0" vertex="1">
          <mxGeometry x="1" relative="1" as="geometry">
            <mxPoint x="5" y="-10" as="offset" />
          </mxGeometry>
        </mxCell>
        <mxCell id="ihGcIfO41RnAnkwEPjgw-122" value="" style="endArrow=none;html=1;rounded=0;fontFamily=Times New Roman;fontSize=18;entryX=0.25;entryY=1;entryDx=0;entryDy=0;exitX=0.5;exitY=0;exitDx=0;exitDy=0;fontStyle=1" parent="1" source="ihGcIfO41RnAnkwEPjgw-118" target="ihGcIfO41RnAnkwEPjgw-171" edge="1">
          <mxGeometry relative="1" as="geometry">
            <mxPoint x="-360" y="1070" as="sourcePoint" />
            <mxPoint x="55" y="1030" as="targetPoint" />
          </mxGeometry>
        </mxCell>
        <mxCell id="ihGcIfO41RnAnkwEPjgw-123" value="&lt;span style=&quot;font-size: 18px;&quot;&gt;M&lt;/span&gt;" style="resizable=0;html=1;align=right;verticalAlign=bottom;fontFamily=Times New Roman;fontSize=18;fontStyle=1" parent="ihGcIfO41RnAnkwEPjgw-122" connectable="0" vertex="1">
          <mxGeometry x="1" relative="1" as="geometry">
            <mxPoint x="-45" y="25" as="offset" />
          </mxGeometry>
        </mxCell>
        <mxCell id="ihGcIfO41RnAnkwEPjgw-124" value="" style="endArrow=none;html=1;rounded=0;fontFamily=Times New Roman;fontSize=18;entryX=0.5;entryY=1;entryDx=0;entryDy=0;exitX=0.5;exitY=0;exitDx=0;exitDy=0;fontStyle=1" parent="1" source="ihGcIfO41RnAnkwEPjgw-119" target="ihGcIfO41RnAnkwEPjgw-117" edge="1">
          <mxGeometry relative="1" as="geometry">
            <mxPoint x="-360" y="950" as="sourcePoint" />
            <mxPoint x="-200" y="950" as="targetPoint" />
          </mxGeometry>
        </mxCell>
        <mxCell id="ihGcIfO41RnAnkwEPjgw-125" value="&lt;span style=&quot;font-size: 18px;&quot;&gt;1&lt;/span&gt;" style="resizable=0;html=1;align=right;verticalAlign=bottom;fontFamily=Times New Roman;fontSize=18;fontStyle=1" parent="ihGcIfO41RnAnkwEPjgw-124" connectable="0" vertex="1">
          <mxGeometry x="1" relative="1" as="geometry">
            <mxPoint x="75" y="15" as="offset" />
          </mxGeometry>
        </mxCell>
        <mxCell id="ihGcIfO41RnAnkwEPjgw-126" value="" style="endArrow=none;html=1;rounded=0;fontFamily=Times New Roman;fontSize=18;entryX=0.4;entryY=-0.008;entryDx=0;entryDy=0;exitX=0.5;exitY=1;exitDx=0;exitDy=0;entryPerimeter=0;fontStyle=1" parent="1" source="ihGcIfO41RnAnkwEPjgw-119" target="ihGcIfO41RnAnkwEPjgw-171" edge="1">
          <mxGeometry relative="1" as="geometry">
            <mxPoint x="-570" y="935" as="sourcePoint" />
            <mxPoint x="-130" y="975" as="targetPoint" />
          </mxGeometry>
        </mxCell>
        <mxCell id="ihGcIfO41RnAnkwEPjgw-127" value="&lt;span style=&quot;font-size: 18px;&quot;&gt;M&lt;/span&gt;" style="resizable=0;html=1;align=right;verticalAlign=bottom;fontFamily=Times New Roman;fontSize=18;fontStyle=1" parent="ihGcIfO41RnAnkwEPjgw-126" connectable="0" vertex="1">
          <mxGeometry x="1" relative="1" as="geometry">
            <mxPoint x="20" y="-11" as="offset" />
          </mxGeometry>
        </mxCell>
        <mxCell id="ihGcIfO41RnAnkwEPjgw-134" value="&lt;span style=&quot;font-size: 18px;&quot;&gt;Has&lt;/span&gt;" style="shape=rhombus;perimeter=rhombusPerimeter;whiteSpace=wrap;html=1;align=center;fontFamily=Times New Roman;fontSize=18;fontStyle=1" parent="1" vertex="1">
          <mxGeometry x="330" y="570" width="120" height="60" as="geometry" />
        </mxCell>
        <mxCell id="ihGcIfO41RnAnkwEPjgw-135" value="&lt;font style=&quot;font-size: 18px;&quot;&gt;Bus&lt;/font&gt;" style="whiteSpace=wrap;html=1;align=center;fontStyle=1;fontSize=18;fontFamily=Times New Roman;" parent="1" vertex="1">
          <mxGeometry x="760.02" y="580" width="119.98" height="40" as="geometry" />
        </mxCell>
        <mxCell id="ihGcIfO41RnAnkwEPjgw-138" value="&lt;font style=&quot;font-size: 18px;&quot;&gt;Bus_ID&lt;/font&gt;" style="ellipse;whiteSpace=wrap;html=1;align=center;fontStyle=5;fontSize=18;fontFamily=Times New Roman;" parent="1" vertex="1">
          <mxGeometry x="720" y="450" width="140.02" height="40" as="geometry" />
        </mxCell>
        <mxCell id="ihGcIfO41RnAnkwEPjgw-139" value="&lt;font style=&quot;font-size: 18px;&quot;&gt;Bus_Time&lt;/font&gt;" style="ellipse;whiteSpace=wrap;html=1;align=center;fontStyle=1;fontFamily=Times New Roman;fontSize=18;" parent="1" vertex="1">
          <mxGeometry x="870.02" y="490" width="139.98" height="40" as="geometry" />
        </mxCell>
        <mxCell id="ihGcIfO41RnAnkwEPjgw-140" value="&lt;font style=&quot;font-size: 18px;&quot;&gt;Bus_No&lt;/font&gt;" style="ellipse;whiteSpace=wrap;html=1;align=center;fontStyle=1;fontFamily=Times New Roman;fontSize=18;" parent="1" vertex="1">
          <mxGeometry x="550" y="500" width="160" height="40" as="geometry" />
        </mxCell>
        <mxCell id="ihGcIfO41RnAnkwEPjgw-141" value="" style="endArrow=none;html=1;rounded=0;exitX=1;exitY=1;exitDx=0;exitDy=0;entryX=0;entryY=0;entryDx=0;entryDy=0;fontStyle=1;fontSize=18;fontFamily=Times New Roman;" parent="1" source="ihGcIfO41RnAnkwEPjgw-140" target="ihGcIfO41RnAnkwEPjgw-135" edge="1">
          <mxGeometry relative="1" as="geometry">
            <mxPoint x="965.02" y="760" as="sourcePoint" />
            <mxPoint x="1125.02" y="760" as="targetPoint" />
          </mxGeometry>
        </mxCell>
        <mxCell id="ihGcIfO41RnAnkwEPjgw-142" value="" style="endArrow=none;html=1;rounded=0;exitX=0.5;exitY=1;exitDx=0;exitDy=0;entryX=0.5;entryY=0;entryDx=0;entryDy=0;fontStyle=1;fontSize=18;fontFamily=Times New Roman;" parent="1" source="ihGcIfO41RnAnkwEPjgw-138" target="ihGcIfO41RnAnkwEPjgw-135" edge="1">
          <mxGeometry relative="1" as="geometry">
            <mxPoint x="1055.02" y="520" as="sourcePoint" />
            <mxPoint x="835.02" y="370" as="targetPoint" />
          </mxGeometry>
        </mxCell>
        <mxCell id="ihGcIfO41RnAnkwEPjgw-143" style="edgeStyle=orthogonalEdgeStyle;rounded=0;orthogonalLoop=1;jettySize=auto;html=1;exitX=0.5;exitY=1;exitDx=0;exitDy=0;fontStyle=1;fontSize=18;fontFamily=Times New Roman;" parent="1" source="ihGcIfO41RnAnkwEPjgw-138" target="ihGcIfO41RnAnkwEPjgw-138" edge="1">
          <mxGeometry relative="1" as="geometry" />
        </mxCell>
        <mxCell id="ihGcIfO41RnAnkwEPjgw-144" value="" style="endArrow=none;html=1;rounded=0;exitX=1;exitY=0;exitDx=0;exitDy=0;fontStyle=1;fontSize=18;entryX=0;entryY=1;entryDx=0;entryDy=0;fontFamily=Times New Roman;" parent="1" source="ihGcIfO41RnAnkwEPjgw-135" target="ihGcIfO41RnAnkwEPjgw-139" edge="1">
          <mxGeometry relative="1" as="geometry">
            <mxPoint x="820.0199999999995" y="570" as="sourcePoint" />
            <mxPoint x="900.02" y="540" as="targetPoint" />
          </mxGeometry>
        </mxCell>
        <mxCell id="ihGcIfO41RnAnkwEPjgw-145" value="&lt;span style=&quot;font-size: 18px;&quot;&gt;Select&lt;/span&gt;" style="shape=rhombus;perimeter=rhombusPerimeter;whiteSpace=wrap;html=1;align=center;fontFamily=Times New Roman;fontSize=18;fontStyle=1" parent="1" vertex="1">
          <mxGeometry x="-460" y="920" width="120" height="60" as="geometry" />
        </mxCell>
        <mxCell id="ihGcIfO41RnAnkwEPjgw-146" value="&lt;font style=&quot;font-size: 18px;&quot;&gt;Payment&lt;/font&gt;" style="whiteSpace=wrap;html=1;align=center;fontStyle=1;fontSize=18;fontFamily=Times New Roman;" parent="1" vertex="1">
          <mxGeometry x="380" y="1410.17" width="100" height="40" as="geometry" />
        </mxCell>
        <mxCell id="ihGcIfO41RnAnkwEPjgw-147" value="" style="endArrow=none;html=1;rounded=0;exitX=1;exitY=0.25;exitDx=0;exitDy=0;entryX=0;entryY=1;entryDx=0;entryDy=0;fontStyle=1;fontSize=18;fontFamily=Times New Roman;" parent="1" source="ihGcIfO41RnAnkwEPjgw-146" target="ihGcIfO41RnAnkwEPjgw-151" edge="1">
          <mxGeometry relative="1" as="geometry">
            <mxPoint x="610" y="1645.17" as="sourcePoint" />
            <mxPoint x="770" y="1645.17" as="targetPoint" />
          </mxGeometry>
        </mxCell>
        <mxCell id="ihGcIfO41RnAnkwEPjgw-149" value="&lt;font style=&quot;font-size: 18px;&quot;&gt;Payment_Type&lt;/font&gt;" style="ellipse;whiteSpace=wrap;html=1;align=center;fontStyle=1;fontSize=18;fontFamily=Times New Roman;" parent="1" vertex="1">
          <mxGeometry x="550" y="1380.17" width="170" height="40" as="geometry" />
        </mxCell>
        <mxCell id="ihGcIfO41RnAnkwEPjgw-150" value="&lt;font style=&quot;font-size: 18px;&quot;&gt;Payment_Amount&lt;/font&gt;" style="ellipse;whiteSpace=wrap;html=1;align=center;fontStyle=1;fontSize=18;fontFamily=Times New Roman;" parent="1" vertex="1">
          <mxGeometry x="470" y="1520" width="190" height="40" as="geometry" />
        </mxCell>
        <mxCell id="ihGcIfO41RnAnkwEPjgw-151" value="&lt;font style=&quot;font-size: 18px;&quot;&gt;Payment_ID&lt;/font&gt;" style="ellipse;whiteSpace=wrap;html=1;align=center;fontStyle=5;fontSize=18;fontFamily=Times New Roman;" parent="1" vertex="1">
          <mxGeometry x="499.98" y="1300" width="150.02" height="40" as="geometry" />
        </mxCell>
        <mxCell id="ihGcIfO41RnAnkwEPjgw-153" value="&lt;font style=&quot;font-size: 18px;&quot;&gt;Payment_Date&lt;/font&gt;" style="ellipse;whiteSpace=wrap;html=1;align=center;fontStyle=1;fontSize=18;fontFamily=Times New Roman;" parent="1" vertex="1">
          <mxGeometry x="550" y="1450.17" width="170" height="40" as="geometry" />
        </mxCell>
        <mxCell id="ihGcIfO41RnAnkwEPjgw-154" value="" style="endArrow=none;html=1;rounded=0;exitX=0.562;exitY=-0.012;exitDx=0;exitDy=0;entryX=0.75;entryY=1;entryDx=0;entryDy=0;fontStyle=1;fontSize=18;exitPerimeter=0;fontFamily=Times New Roman;" parent="1" source="ihGcIfO41RnAnkwEPjgw-150" target="ihGcIfO41RnAnkwEPjgw-146" edge="1">
          <mxGeometry relative="1" as="geometry">
            <mxPoint x="610" y="1635.17" as="sourcePoint" />
            <mxPoint x="770" y="1635.17" as="targetPoint" />
          </mxGeometry>
        </mxCell>
        <mxCell id="ihGcIfO41RnAnkwEPjgw-155" value="" style="endArrow=none;html=1;rounded=0;entryX=1;entryY=1;entryDx=0;entryDy=0;exitX=0.048;exitY=0.253;exitDx=0;exitDy=0;fontStyle=1;fontSize=18;exitPerimeter=0;fontFamily=Times New Roman;" parent="1" source="ihGcIfO41RnAnkwEPjgw-153" target="ihGcIfO41RnAnkwEPjgw-146" edge="1">
          <mxGeometry relative="1" as="geometry">
            <mxPoint x="610" y="1635.17" as="sourcePoint" />
            <mxPoint x="770" y="1635.17" as="targetPoint" />
          </mxGeometry>
        </mxCell>
        <mxCell id="ihGcIfO41RnAnkwEPjgw-156" value="" style="endArrow=none;html=1;rounded=0;entryX=1;entryY=0.5;entryDx=0;entryDy=0;exitX=0;exitY=0.5;exitDx=0;exitDy=0;fontStyle=1;fontSize=18;fontFamily=Times New Roman;" parent="1" source="ihGcIfO41RnAnkwEPjgw-149" target="ihGcIfO41RnAnkwEPjgw-146" edge="1">
          <mxGeometry relative="1" as="geometry">
            <mxPoint x="370" y="1625.17" as="sourcePoint" />
            <mxPoint x="530" y="1625.17" as="targetPoint" />
          </mxGeometry>
        </mxCell>
        <mxCell id="ihGcIfO41RnAnkwEPjgw-159" value="" style="endArrow=none;html=1;rounded=0;fontFamily=Times New Roman;fontSize=18;entryX=1;entryY=0.25;entryDx=0;entryDy=0;exitX=0;exitY=0.5;exitDx=0;exitDy=0;fontStyle=1" parent="1" source="ihGcIfO41RnAnkwEPjgw-134" target="ihGcIfO41RnAnkwEPjgw-117" edge="1">
          <mxGeometry relative="1" as="geometry">
            <mxPoint x="110" y="1080" as="sourcePoint" />
            <mxPoint x="270" y="1080" as="targetPoint" />
          </mxGeometry>
        </mxCell>
        <mxCell id="ihGcIfO41RnAnkwEPjgw-160" value="&lt;span style=&quot;font-size: 18px;&quot;&gt;1&lt;/span&gt;" style="resizable=0;html=1;align=right;verticalAlign=bottom;fontFamily=Times New Roman;fontSize=18;fontStyle=1" parent="ihGcIfO41RnAnkwEPjgw-159" connectable="0" vertex="1">
          <mxGeometry x="1" relative="1" as="geometry">
            <mxPoint x="20" as="offset" />
          </mxGeometry>
        </mxCell>
        <mxCell id="ihGcIfO41RnAnkwEPjgw-161" value="" style="endArrow=none;html=1;rounded=0;fontFamily=Times New Roman;fontSize=18;entryX=0;entryY=0.5;entryDx=0;entryDy=0;exitX=1;exitY=0.5;exitDx=0;exitDy=0;fontStyle=1" parent="1" source="ihGcIfO41RnAnkwEPjgw-134" target="ihGcIfO41RnAnkwEPjgw-135" edge="1">
          <mxGeometry relative="1" as="geometry">
            <mxPoint x="110" y="1080" as="sourcePoint" />
            <mxPoint x="270" y="1080" as="targetPoint" />
          </mxGeometry>
        </mxCell>
        <mxCell id="ihGcIfO41RnAnkwEPjgw-162" value="&lt;span style=&quot;font-size: 18px;&quot;&gt;M&lt;/span&gt;" style="resizable=0;html=1;align=right;verticalAlign=bottom;fontFamily=Times New Roman;fontSize=18;fontStyle=1" parent="ihGcIfO41RnAnkwEPjgw-161" connectable="0" vertex="1">
          <mxGeometry x="1" relative="1" as="geometry">
            <mxPoint x="-20" as="offset" />
          </mxGeometry>
        </mxCell>
        <mxCell id="ihGcIfO41RnAnkwEPjgw-166" value="&lt;span style=&quot;font-size: 18px;&quot;&gt;Has&lt;/span&gt;" style="shape=rhombus;perimeter=rhombusPerimeter;whiteSpace=wrap;html=1;align=center;fontFamily=Times New Roman;fontSize=18;fontStyle=1" parent="1" vertex="1">
          <mxGeometry x="360" y="1169" width="120" height="60" as="geometry" />
        </mxCell>
        <mxCell id="ihGcIfO41RnAnkwEPjgw-167" value="" style="endArrow=none;html=1;rounded=0;fontFamily=Times New Roman;fontSize=18;exitX=0.5;exitY=1;exitDx=0;exitDy=0;entryX=0.4;entryY=-0.013;entryDx=0;entryDy=0;entryPerimeter=0;fontStyle=1" parent="1" source="ihGcIfO41RnAnkwEPjgw-166" target="ihGcIfO41RnAnkwEPjgw-146" edge="1">
          <mxGeometry relative="1" as="geometry">
            <mxPoint x="560.02" y="1150" as="sourcePoint" />
            <mxPoint x="830.02" y="1060" as="targetPoint" />
          </mxGeometry>
        </mxCell>
        <mxCell id="ihGcIfO41RnAnkwEPjgw-168" value="&lt;span style=&quot;font-size: 18px;&quot;&gt;1&lt;/span&gt;" style="resizable=0;html=1;align=right;verticalAlign=bottom;fontFamily=Times New Roman;fontSize=18;fontStyle=1" parent="ihGcIfO41RnAnkwEPjgw-167" connectable="0" vertex="1">
          <mxGeometry x="1" relative="1" as="geometry">
            <mxPoint x="20" y="-9" as="offset" />
          </mxGeometry>
        </mxCell>
        <mxCell id="ihGcIfO41RnAnkwEPjgw-169" value="" style="endArrow=none;html=1;rounded=0;fontFamily=Times New Roman;fontSize=18;entryX=0.5;entryY=1;entryDx=0;entryDy=0;exitX=0.5;exitY=0;exitDx=0;exitDy=0;fontStyle=1" parent="1" source="ihGcIfO41RnAnkwEPjgw-166" target="ihGcIfO41RnAnkwEPjgw-171" edge="1">
          <mxGeometry relative="1" as="geometry">
            <mxPoint x="340" y="1150" as="sourcePoint" />
            <mxPoint x="360" y="1000" as="targetPoint" />
          </mxGeometry>
        </mxCell>
        <mxCell id="ihGcIfO41RnAnkwEPjgw-170" value="&lt;span style=&quot;font-size: 18px;&quot;&gt;M&lt;/span&gt;" style="resizable=0;html=1;align=right;verticalAlign=bottom;fontFamily=Times New Roman;fontSize=18;fontStyle=1" parent="ihGcIfO41RnAnkwEPjgw-169" connectable="0" vertex="1">
          <mxGeometry x="1" relative="1" as="geometry">
            <mxPoint x="21" as="offset" />
          </mxGeometry>
        </mxCell>
        <mxCell id="ihGcIfO41RnAnkwEPjgw-171" value="&lt;font style=&quot;font-size: 18px;&quot;&gt;Ticket&lt;/font&gt;" style="whiteSpace=wrap;html=1;align=center;fontStyle=1;fontSize=18;fontFamily=Times New Roman;" parent="1" vertex="1">
          <mxGeometry x="60" y="965" width="100" height="40" as="geometry" />
        </mxCell>
        <mxCell id="ihGcIfO41RnAnkwEPjgw-172" value="&lt;font style=&quot;font-size: 18px;&quot;&gt;Ticket_ID&lt;/font&gt;" style="ellipse;whiteSpace=wrap;html=1;align=center;fontStyle=5;fontSize=18;fontFamily=Times New Roman;" parent="1" vertex="1">
          <mxGeometry x="170" y="865" width="140" height="40" as="geometry" />
        </mxCell>
        <mxCell id="ihGcIfO41RnAnkwEPjgw-174" value="&lt;font style=&quot;font-size: 18px;&quot;&gt;Quantity&lt;/font&gt;" style="ellipse;whiteSpace=wrap;html=1;align=center;fontStyle=1;fontSize=18;fontFamily=Times New Roman;" parent="1" vertex="1">
          <mxGeometry x="-80" y="865" width="130" height="40" as="geometry" />
        </mxCell>
        <mxCell id="ihGcIfO41RnAnkwEPjgw-175" value="&lt;font style=&quot;font-size: 18px;&quot;&gt;Ticket_Price&lt;/font&gt;" style="ellipse;whiteSpace=wrap;html=1;align=center;fontStyle=1;fontSize=18;fontFamily=Times New Roman;" parent="1" vertex="1">
          <mxGeometry x="-140" y="965" width="140" height="40" as="geometry" />
        </mxCell>
        <mxCell id="ihGcIfO41RnAnkwEPjgw-176" value="" style="endArrow=none;html=1;rounded=0;entryX=1;entryY=1;entryDx=0;entryDy=0;exitX=0;exitY=0;exitDx=0;exitDy=0;fontStyle=1;fontSize=18;fontFamily=Times New Roman;" parent="1" source="ihGcIfO41RnAnkwEPjgw-171" target="ihGcIfO41RnAnkwEPjgw-174" edge="1">
          <mxGeometry relative="1" as="geometry">
            <mxPoint x="-90" y="1375.0000000000002" as="sourcePoint" />
            <mxPoint x="70" y="1375.0000000000002" as="targetPoint" />
          </mxGeometry>
        </mxCell>
        <mxCell id="ihGcIfO41RnAnkwEPjgw-178" value="" style="endArrow=none;html=1;rounded=0;entryX=0.268;entryY=0.963;entryDx=0;entryDy=0;fontStyle=1;fontSize=18;entryPerimeter=0;exitX=0.75;exitY=0;exitDx=0;exitDy=0;fontFamily=Times New Roman;" parent="1" source="ihGcIfO41RnAnkwEPjgw-171" target="ihGcIfO41RnAnkwEPjgw-172" edge="1">
          <mxGeometry relative="1" as="geometry">
            <mxPoint x="170" y="935" as="sourcePoint" />
            <mxPoint x="300" y="1475" as="targetPoint" />
          </mxGeometry>
        </mxCell>
        <mxCell id="ihGcIfO41RnAnkwEPjgw-179" value="" style="endArrow=none;html=1;rounded=0;entryX=0;entryY=0.5;entryDx=0;entryDy=0;exitX=1;exitY=0.5;exitDx=0;exitDy=0;fontStyle=1;fontSize=18;fontFamily=Times New Roman;" parent="1" source="ihGcIfO41RnAnkwEPjgw-175" target="ihGcIfO41RnAnkwEPjgw-171" edge="1">
          <mxGeometry relative="1" as="geometry">
            <mxPoint x="-90" y="1375.0000000000002" as="sourcePoint" />
            <mxPoint x="70" y="1375.0000000000002" as="targetPoint" />
          </mxGeometry>
        </mxCell>
        <mxCell id="ihGcIfO41RnAnkwEPjgw-182" value="&lt;span style=&quot;font-size: 18px;&quot;&gt;Verify&lt;/span&gt;" style="shape=rhombus;perimeter=rhombusPerimeter;whiteSpace=wrap;html=1;align=center;fontFamily=Times New Roman;fontSize=18;fontStyle=1" parent="1" vertex="1">
          <mxGeometry x="360" y="1580.17" width="120" height="60" as="geometry" />
        </mxCell>
        <mxCell id="ihGcIfO41RnAnkwEPjgw-183" value="&lt;span style=&quot;font-size: 18px;&quot;&gt;Manager&lt;/span&gt;" style="whiteSpace=wrap;html=1;align=center;fontFamily=Times New Roman;fontSize=18;fontStyle=1" parent="1" vertex="1">
          <mxGeometry x="370" y="1780.17" width="100" height="40" as="geometry" />
        </mxCell>
        <mxCell id="ihGcIfO41RnAnkwEPjgw-184" value="" style="endArrow=none;html=1;rounded=0;fontFamily=Times New Roman;fontSize=18;entryX=0.5;entryY=0;entryDx=0;entryDy=0;exitX=0.5;exitY=1;exitDx=0;exitDy=0;fontStyle=1" parent="1" source="ihGcIfO41RnAnkwEPjgw-182" target="ihGcIfO41RnAnkwEPjgw-183" edge="1">
          <mxGeometry relative="1" as="geometry">
            <mxPoint x="420" y="1690.3400000000001" as="sourcePoint" />
            <mxPoint x="-90" y="1840.17" as="targetPoint" />
          </mxGeometry>
        </mxCell>
        <mxCell id="ihGcIfO41RnAnkwEPjgw-185" value="&lt;span style=&quot;font-size: 18px;&quot;&gt;1&lt;/span&gt;" style="resizable=0;html=1;align=right;verticalAlign=bottom;fontFamily=Times New Roman;fontSize=18;fontStyle=1" parent="ihGcIfO41RnAnkwEPjgw-184" connectable="0" vertex="1">
          <mxGeometry x="1" relative="1" as="geometry">
            <mxPoint x="-10" y="-5" as="offset" />
          </mxGeometry>
        </mxCell>
        <mxCell id="ihGcIfO41RnAnkwEPjgw-186" value="" style="endArrow=none;html=1;rounded=0;fontFamily=Times New Roman;fontSize=18;entryX=0.4;entryY=1.071;entryDx=0;entryDy=0;entryPerimeter=0;exitX=0.5;exitY=0;exitDx=0;exitDy=0;fontStyle=1" parent="1" source="ihGcIfO41RnAnkwEPjgw-182" target="ihGcIfO41RnAnkwEPjgw-146" edge="1">
          <mxGeometry relative="1" as="geometry">
            <mxPoint x="350" y="1560" as="sourcePoint" />
            <mxPoint x="860" y="950" as="targetPoint" />
          </mxGeometry>
        </mxCell>
        <mxCell id="ihGcIfO41RnAnkwEPjgw-187" value="&lt;span style=&quot;font-size: 18px;&quot;&gt;M&lt;/span&gt;" style="resizable=0;html=1;align=right;verticalAlign=bottom;fontFamily=Times New Roman;fontSize=18;fontStyle=1" parent="ihGcIfO41RnAnkwEPjgw-186" connectable="0" vertex="1">
          <mxGeometry x="1" relative="1" as="geometry">
            <mxPoint x="-10" y="27" as="offset" />
          </mxGeometry>
        </mxCell>
        <mxCell id="ihGcIfO41RnAnkwEPjgw-188" value="&lt;font style=&quot;font-size: 18px;&quot;&gt;Driver&lt;/font&gt;" style="whiteSpace=wrap;html=1;align=center;fontStyle=1;fontSize=18;fontFamily=Times New Roman;" parent="1" vertex="1">
          <mxGeometry x="780" y="1960" width="100.06" height="40" as="geometry" />
        </mxCell>
        <mxCell id="ihGcIfO41RnAnkwEPjgw-190" value="&lt;font style=&quot;font-size: 18px;&quot;&gt;Driver_ID&lt;/font&gt;" style="ellipse;whiteSpace=wrap;html=1;align=center;fontStyle=5;fontFamily=Times New Roman;fontSize=18;" parent="1" vertex="1">
          <mxGeometry x="945.06" y="1960" width="164.94" height="40" as="geometry" />
        </mxCell>
        <mxCell id="ihGcIfO41RnAnkwEPjgw-192" value="&lt;font style=&quot;font-size: 18px;&quot;&gt;Driver_Name&lt;/font&gt;" style="ellipse;whiteSpace=wrap;html=1;align=center;fontStyle=1;fontFamily=Times New Roman;fontSize=18;" parent="1" vertex="1">
          <mxGeometry x="915.06" y="1870" width="154.94" height="40" as="geometry" />
        </mxCell>
        <mxCell id="ihGcIfO41RnAnkwEPjgw-194" value="" style="endArrow=none;html=1;rounded=0;exitX=0;exitY=1;exitDx=0;exitDy=0;entryX=1;entryY=0;entryDx=0;entryDy=0;fontStyle=1;fontSize=18;fontFamily=Times New Roman;" parent="1" source="ihGcIfO41RnAnkwEPjgw-192" target="ihGcIfO41RnAnkwEPjgw-188" edge="1">
          <mxGeometry relative="1" as="geometry">
            <mxPoint x="620.06" y="2170" as="sourcePoint" />
            <mxPoint x="860.06" y="1960" as="targetPoint" />
          </mxGeometry>
        </mxCell>
        <mxCell id="ihGcIfO41RnAnkwEPjgw-195" value="" style="endArrow=none;html=1;rounded=0;entryX=0;entryY=0.5;entryDx=0;entryDy=0;exitX=1;exitY=0.5;exitDx=0;exitDy=0;fontStyle=1;fontSize=18;fontFamily=Times New Roman;" parent="1" source="ihGcIfO41RnAnkwEPjgw-188" target="ihGcIfO41RnAnkwEPjgw-190" edge="1">
          <mxGeometry relative="1" as="geometry">
            <mxPoint x="620.06" y="2170" as="sourcePoint" />
            <mxPoint x="780.06" y="2170" as="targetPoint" />
          </mxGeometry>
        </mxCell>
        <mxCell id="ihGcIfO41RnAnkwEPjgw-197" value="&lt;span style=&quot;font-size: 18px;&quot;&gt;Drive&lt;/span&gt;" style="shape=rhombus;perimeter=rhombusPerimeter;whiteSpace=wrap;html=1;align=center;fontFamily=Times New Roman;fontSize=18;fontStyle=1" parent="1" vertex="1">
          <mxGeometry x="760.06" y="1190" width="120" height="60" as="geometry" />
        </mxCell>
        <mxCell id="ihGcIfO41RnAnkwEPjgw-198" value="" style="endArrow=none;html=1;rounded=0;fontFamily=Times New Roman;fontSize=18;entryX=0.41;entryY=-0.056;entryDx=0;entryDy=0;entryPerimeter=0;exitX=0.5;exitY=1;exitDx=0;exitDy=0;fontStyle=1" parent="1" source="ihGcIfO41RnAnkwEPjgw-197" target="ihGcIfO41RnAnkwEPjgw-188" edge="1">
          <mxGeometry relative="1" as="geometry">
            <mxPoint x="530" y="850" as="sourcePoint" />
            <mxPoint x="690" y="850" as="targetPoint" />
          </mxGeometry>
        </mxCell>
        <mxCell id="ihGcIfO41RnAnkwEPjgw-199" value="&lt;span style=&quot;font-size: 18px;&quot;&gt;1&lt;/span&gt;" style="resizable=0;html=1;align=right;verticalAlign=bottom;fontFamily=Times New Roman;fontSize=18;fontStyle=1" parent="ihGcIfO41RnAnkwEPjgw-198" connectable="0" vertex="1">
          <mxGeometry x="1" relative="1" as="geometry">
            <mxPoint x="14" y="-8" as="offset" />
          </mxGeometry>
        </mxCell>
        <mxCell id="ihGcIfO41RnAnkwEPjgw-200" value="" style="endArrow=none;html=1;rounded=0;fontFamily=Times New Roman;fontSize=18;entryX=0.5;entryY=1;entryDx=0;entryDy=0;exitX=0.5;exitY=0;exitDx=0;exitDy=0;fontStyle=1" parent="1" source="ihGcIfO41RnAnkwEPjgw-197" target="ihGcIfO41RnAnkwEPjgw-135" edge="1">
          <mxGeometry relative="1" as="geometry">
            <mxPoint x="870" y="810" as="sourcePoint" />
            <mxPoint x="690" y="850" as="targetPoint" />
          </mxGeometry>
        </mxCell>
        <mxCell id="ihGcIfO41RnAnkwEPjgw-201" value="&lt;span style=&quot;font-size: 18px;&quot;&gt;1&lt;/span&gt;" style="resizable=0;html=1;align=right;verticalAlign=bottom;fontFamily=Times New Roman;fontSize=18;fontStyle=1" parent="ihGcIfO41RnAnkwEPjgw-200" connectable="0" vertex="1">
          <mxGeometry x="1" relative="1" as="geometry">
            <mxPoint x="20" y="31" as="offset" />
          </mxGeometry>
        </mxCell>
        <mxCell id="ihGcIfO41RnAnkwEPjgw-202" value="&lt;span style=&quot;font-size: 18px;&quot;&gt;Can&lt;/span&gt;" style="shape=rhombus;perimeter=rhombusPerimeter;whiteSpace=wrap;html=1;align=center;fontFamily=Times New Roman;fontSize=18;fontStyle=1" parent="1" vertex="1">
          <mxGeometry x="294" y="1950.17" width="120" height="60" as="geometry" />
        </mxCell>
        <mxCell id="ihGcIfO41RnAnkwEPjgw-203" value="&lt;span style=&quot;font-size: 18px;&quot;&gt;Can&lt;/span&gt;" style="shape=rhombus;perimeter=rhombusPerimeter;whiteSpace=wrap;html=1;align=center;fontFamily=Times New Roman;fontSize=18;fontStyle=1" parent="1" vertex="1">
          <mxGeometry x="-60" y="1770.17" width="120" height="60" as="geometry" />
        </mxCell>
        <mxCell id="ihGcIfO41RnAnkwEPjgw-209" value="" style="endArrow=none;html=1;rounded=0;fontFamily=Times New Roman;fontSize=18;entryX=0;entryY=0.5;entryDx=0;entryDy=0;exitX=1;exitY=0.5;exitDx=0;exitDy=0;fontStyle=1" parent="1" source="ihGcIfO41RnAnkwEPjgw-203" target="ihGcIfO41RnAnkwEPjgw-183" edge="1">
          <mxGeometry relative="1" as="geometry">
            <mxPoint x="160" y="1870.17" as="sourcePoint" />
            <mxPoint x="720" y="1420.17" as="targetPoint" />
          </mxGeometry>
        </mxCell>
        <mxCell id="ihGcIfO41RnAnkwEPjgw-210" value="&lt;span style=&quot;font-size: 18px;&quot;&gt;1&lt;/span&gt;" style="resizable=0;html=1;align=right;verticalAlign=bottom;fontFamily=Times New Roman;fontSize=18;fontStyle=1" parent="ihGcIfO41RnAnkwEPjgw-209" connectable="0" vertex="1">
          <mxGeometry x="1" relative="1" as="geometry">
            <mxPoint x="-10" y="30" as="offset" />
          </mxGeometry>
        </mxCell>
        <mxCell id="ihGcIfO41RnAnkwEPjgw-213" value="" style="endArrow=none;html=1;rounded=0;fontFamily=Times New Roman;fontSize=18;exitX=0;exitY=0.5;exitDx=0;exitDy=0;entryX=1;entryY=0.5;entryDx=0;entryDy=0;fontStyle=1" parent="1" source="ihGcIfO41RnAnkwEPjgw-202" target="ihGcIfO41RnAnkwEPjgw-79" edge="1">
          <mxGeometry relative="1" as="geometry">
            <mxPoint x="780" y="2030" as="sourcePoint" />
            <mxPoint x="-250" y="1990" as="targetPoint" />
            <Array as="points" />
          </mxGeometry>
        </mxCell>
        <mxCell id="ihGcIfO41RnAnkwEPjgw-214" value="&lt;span style=&quot;font-size: 18px;&quot;&gt;M&lt;/span&gt;" style="resizable=0;html=1;align=right;verticalAlign=bottom;fontFamily=Times New Roman;fontSize=18;fontStyle=1" parent="ihGcIfO41RnAnkwEPjgw-213" connectable="0" vertex="1">
          <mxGeometry x="1" relative="1" as="geometry">
            <mxPoint x="50" as="offset" />
          </mxGeometry>
        </mxCell>
        <mxCell id="ihGcIfO41RnAnkwEPjgw-215" value="" style="endArrow=none;html=1;rounded=0;fontFamily=Times New Roman;fontSize=18;exitX=0;exitY=0.5;exitDx=0;exitDy=0;entryX=1;entryY=0.25;entryDx=0;entryDy=0;fontStyle=1" parent="1" source="ihGcIfO41RnAnkwEPjgw-203" target="ihGcIfO41RnAnkwEPjgw-79" edge="1">
          <mxGeometry relative="1" as="geometry">
            <mxPoint x="230" y="1440" as="sourcePoint" />
            <mxPoint x="-360" y="1960" as="targetPoint" />
            <Array as="points" />
          </mxGeometry>
        </mxCell>
        <mxCell id="ihGcIfO41RnAnkwEPjgw-216" value="&lt;span style=&quot;font-size: 18px;&quot;&gt;M&lt;/span&gt;" style="resizable=0;html=1;align=right;verticalAlign=bottom;fontFamily=Times New Roman;fontSize=18;fontStyle=1" parent="ihGcIfO41RnAnkwEPjgw-215" connectable="0" vertex="1">
          <mxGeometry x="1" relative="1" as="geometry">
            <mxPoint x="20" y="-15" as="offset" />
          </mxGeometry>
        </mxCell>
        <mxCell id="ihGcIfO41RnAnkwEPjgw-217" value="" style="endArrow=none;html=1;rounded=0;fontFamily=Times New Roman;fontSize=18;exitX=1;exitY=0.5;exitDx=0;exitDy=0;entryX=0;entryY=0.5;entryDx=0;entryDy=0;fontStyle=1" parent="1" source="ihGcIfO41RnAnkwEPjgw-202" target="ihGcIfO41RnAnkwEPjgw-188" edge="1">
          <mxGeometry relative="1" as="geometry">
            <mxPoint x="772.51" y="1569.83" as="sourcePoint" />
            <mxPoint x="880" y="1980" as="targetPoint" />
          </mxGeometry>
        </mxCell>
        <mxCell id="ihGcIfO41RnAnkwEPjgw-218" value="&lt;span style=&quot;font-size: 18px;&quot;&gt;1&lt;/span&gt;" style="resizable=0;html=1;align=right;verticalAlign=bottom;fontFamily=Times New Roman;fontSize=18;fontStyle=1" parent="ihGcIfO41RnAnkwEPjgw-217" connectable="0" vertex="1">
          <mxGeometry x="1" relative="1" as="geometry">
            <mxPoint x="-20" y="-3" as="offset" />
          </mxGeometry>
        </mxCell>
        <mxCell id="ihGcIfO41RnAnkwEPjgw-219" value="" style="endArrow=none;html=1;rounded=0;fontFamily=Times New Roman;fontSize=18;exitX=0.5;exitY=1;exitDx=0;exitDy=0;fontStyle=1" parent="1" source="ihGcIfO41RnAnkwEPjgw-145" edge="1">
          <mxGeometry relative="1" as="geometry">
            <mxPoint x="-290" y="1170" as="sourcePoint" />
            <mxPoint x="-400" y="1410" as="targetPoint" />
          </mxGeometry>
        </mxCell>
        <mxCell id="ihGcIfO41RnAnkwEPjgw-220" value="&lt;span style=&quot;font-size: 18px;&quot;&gt;M&lt;/span&gt;" style="resizable=0;html=1;align=right;verticalAlign=bottom;fontFamily=Times New Roman;fontSize=18;fontStyle=1" parent="ihGcIfO41RnAnkwEPjgw-219" connectable="0" vertex="1">
          <mxGeometry x="1" relative="1" as="geometry">
            <mxPoint x="580" y="-381" as="offset" />
          </mxGeometry>
        </mxCell>
        <mxCell id="ihGcIfO41RnAnkwEPjgw-221" value="" style="endArrow=none;html=1;rounded=0;fontFamily=Times New Roman;fontSize=18;exitX=0.5;exitY=0;exitDx=0;exitDy=0;entryX=0;entryY=1;entryDx=0;entryDy=0;fontStyle=1" parent="1" source="ihGcIfO41RnAnkwEPjgw-145" target="ihGcIfO41RnAnkwEPjgw-117" edge="1">
          <mxGeometry relative="1" as="geometry">
            <mxPoint x="-150" y="1070" as="sourcePoint" />
            <mxPoint x="-30" y="700" as="targetPoint" />
          </mxGeometry>
        </mxCell>
        <mxCell id="ihGcIfO41RnAnkwEPjgw-222" value="&lt;span style=&quot;font-size: 18px;&quot;&gt;1&lt;/span&gt;" style="resizable=0;html=1;align=right;verticalAlign=bottom;fontFamily=Times New Roman;fontSize=18;fontStyle=1" parent="ihGcIfO41RnAnkwEPjgw-221" connectable="0" vertex="1">
          <mxGeometry x="1" relative="1" as="geometry">
            <mxPoint x="-10" y="10" as="offset" />
          </mxGeometry>
        </mxCell>
        <mxCell id="Z9PpKv5yHRZ4maq-UPdC-1" value="&lt;font style=&quot;font-size: 18px;&quot;&gt;Route_Name&lt;/font&gt;" style="ellipse;whiteSpace=wrap;html=1;align=center;fontStyle=1;fontSize=18;fontFamily=Times New Roman;" parent="1" vertex="1">
          <mxGeometry x="-350" y="490" width="123" height="40" as="geometry" />
        </mxCell>
        <mxCell id="Z9PpKv5yHRZ4maq-UPdC-2" value="&lt;font style=&quot;font-size: 18px;&quot;&gt;Route_ID&lt;/font&gt;" style="ellipse;whiteSpace=wrap;html=1;align=center;fontStyle=5;fontSize=18;fontFamily=Times New Roman;" parent="1" vertex="1">
          <mxGeometry x="-510" y="490" width="143" height="40" as="geometry" />
        </mxCell>
        <mxCell id="Z9PpKv5yHRZ4maq-UPdC-3" value="" style="endArrow=none;html=1;rounded=0;entryX=0.297;entryY=0.949;entryDx=0;entryDy=0;exitX=0.75;exitY=0;exitDx=0;exitDy=0;fontStyle=1;fontSize=18;entryPerimeter=0;fontFamily=Times New Roman;" parent="1" source="ihGcIfO41RnAnkwEPjgw-117" target="Z9PpKv5yHRZ4maq-UPdC-1" edge="1">
          <mxGeometry relative="1" as="geometry">
            <mxPoint x="-236.9999999999999" y="440" as="sourcePoint" />
            <mxPoint x="-557" y="580" as="targetPoint" />
          </mxGeometry>
        </mxCell>
        <mxCell id="Z9PpKv5yHRZ4maq-UPdC-4" value="" style="endArrow=none;html=1;rounded=0;fontStyle=1;fontSize=18;entryX=0.6;entryY=1;entryDx=0;entryDy=0;entryPerimeter=0;exitX=0.25;exitY=0;exitDx=0;exitDy=0;fontFamily=Times New Roman;" parent="1" source="ihGcIfO41RnAnkwEPjgw-117" target="Z9PpKv5yHRZ4maq-UPdC-2" edge="1">
          <mxGeometry relative="1" as="geometry">
            <mxPoint x="-387" y="570" as="sourcePoint" />
            <mxPoint x="-427" y="187.64705882352942" as="targetPoint" />
          </mxGeometry>
        </mxCell>
        <mxCell id="Z9PpKv5yHRZ4maq-UPdC-8" value="&lt;span style=&quot;font-size: 18px;&quot;&gt;Manager_Name&lt;/span&gt;" style="ellipse;whiteSpace=wrap;html=1;align=center;fontFamily=Times New Roman;fontSize=18;fontStyle=1" parent="1" vertex="1">
          <mxGeometry x="530" y="1820.17" width="180" height="40" as="geometry" />
        </mxCell>
        <mxCell id="Z9PpKv5yHRZ4maq-UPdC-9" value="&lt;span style=&quot;font-size: 18px;&quot;&gt;M_Password&lt;/span&gt;" style="ellipse;whiteSpace=wrap;html=1;align=center;fontFamily=Times New Roman;fontSize=18;fontStyle=1" parent="1" vertex="1">
          <mxGeometry x="540.02" y="1720" width="159.98" height="40" as="geometry" />
        </mxCell>
        <mxCell id="Z9PpKv5yHRZ4maq-UPdC-11" value="" style="endArrow=none;html=1;rounded=0;fontFamily=Times New Roman;fontSize=18;entryX=0;entryY=1;entryDx=0;entryDy=0;exitX=1;exitY=0;exitDx=0;exitDy=0;fontStyle=1" parent="1" source="ihGcIfO41RnAnkwEPjgw-183" target="Z9PpKv5yHRZ4maq-UPdC-9" edge="1">
          <mxGeometry relative="1" as="geometry">
            <mxPoint x="-170" y="1860" as="sourcePoint" />
            <mxPoint x="-10" y="1860" as="targetPoint" />
          </mxGeometry>
        </mxCell>
        <mxCell id="Z9PpKv5yHRZ4maq-UPdC-12" value="" style="endArrow=none;html=1;rounded=0;fontFamily=Times New Roman;fontSize=18;entryX=0;entryY=0.5;entryDx=0;entryDy=0;exitX=1;exitY=1;exitDx=0;exitDy=0;fontStyle=1" parent="1" source="ihGcIfO41RnAnkwEPjgw-183" target="Z9PpKv5yHRZ4maq-UPdC-8" edge="1">
          <mxGeometry relative="1" as="geometry">
            <mxPoint x="-170" y="1860" as="sourcePoint" />
            <mxPoint x="-10" y="1860" as="targetPoint" />
          </mxGeometry>
        </mxCell>
        <mxCell id="Z9PpKv5yHRZ4maq-UPdC-13" value="&lt;span style=&quot;font-size: 18px;&quot;&gt;Registration_ID&lt;/span&gt;" style="ellipse;whiteSpace=wrap;html=1;align=center;fontStyle=5;fontFamily=Times New Roman;fontSize=18;" parent="1" vertex="1">
          <mxGeometry x="770" y="2160" width="200.02" height="40" as="geometry" />
        </mxCell>
        <mxCell id="Z9PpKv5yHRZ4maq-UPdC-14" value="&lt;span style=&quot;font-size: 18px;&quot;&gt;R_Date&lt;/span&gt;" style="ellipse;whiteSpace=wrap;html=1;align=center;fontFamily=Times New Roman;fontSize=18;fontStyle=1" parent="1" vertex="1">
          <mxGeometry x="1000" y="2160" width="140" height="40" as="geometry" />
        </mxCell>
        <mxCell id="Z9PpKv5yHRZ4maq-UPdC-15" value="" style="endArrow=none;html=1;rounded=0;fontFamily=Times New Roman;fontSize=18;entryX=0.676;entryY=0.949;entryDx=0;entryDy=0;entryPerimeter=0;exitX=0.379;exitY=-0.001;exitDx=0;exitDy=0;exitPerimeter=0;fontStyle=1" parent="1" source="ihGcIfO41RnAnkwEPjgw-73" target="Z9PpKv5yHRZ4maq-UPdC-13" edge="1">
          <mxGeometry relative="1" as="geometry">
            <mxPoint x="285" y="2530" as="sourcePoint" />
            <mxPoint x="445" y="2530" as="targetPoint" />
          </mxGeometry>
        </mxCell>
        <mxCell id="Z9PpKv5yHRZ4maq-UPdC-16" value="" style="endArrow=none;html=1;rounded=0;fontFamily=Times New Roman;fontSize=18;entryX=0.5;entryY=1;entryDx=0;entryDy=0;exitX=0.862;exitY=-0.031;exitDx=0;exitDy=0;exitPerimeter=0;fontStyle=1" parent="1" source="ihGcIfO41RnAnkwEPjgw-73" target="Z9PpKv5yHRZ4maq-UPdC-14" edge="1">
          <mxGeometry relative="1" as="geometry">
            <mxPoint x="285" y="2530" as="sourcePoint" />
            <mxPoint x="445" y="2530" as="targetPoint" />
          </mxGeometry>
        </mxCell>
        <mxCell id="Z9PpKv5yHRZ4maq-UPdC-22" value="&lt;span style=&quot;font-size: 18px;&quot;&gt;Arrival_Time&lt;/span&gt;" style="ellipse;whiteSpace=wrap;html=1;align=center;fontFamily=Times New Roman;fontSize=18;fontStyle=1" parent="1" vertex="1">
          <mxGeometry x="975.02" y="420" width="174.98" height="40" as="geometry" />
        </mxCell>
        <mxCell id="Z9PpKv5yHRZ4maq-UPdC-23" value="&lt;span style=&quot;font-size: 18px;&quot;&gt;Departure_Time&lt;/span&gt;" style="ellipse;whiteSpace=wrap;html=1;align=center;fontFamily=Times New Roman;fontSize=18;fontStyle=1" parent="1" vertex="1">
          <mxGeometry x="990.02" y="565" width="169.98" height="40" as="geometry" />
        </mxCell>
        <mxCell id="Z9PpKv5yHRZ4maq-UPdC-24" value="" style="endArrow=none;html=1;rounded=0;fontFamily=Times New Roman;fontSize=18;entryX=0;entryY=0;entryDx=0;entryDy=0;exitX=1;exitY=1;exitDx=0;exitDy=0;fontStyle=1" parent="1" source="ihGcIfO41RnAnkwEPjgw-139" target="Z9PpKv5yHRZ4maq-UPdC-23" edge="1">
          <mxGeometry relative="1" as="geometry">
            <mxPoint x="180" y="660" as="sourcePoint" />
            <mxPoint x="340" y="660" as="targetPoint" />
          </mxGeometry>
        </mxCell>
        <mxCell id="Z9PpKv5yHRZ4maq-UPdC-25" value="" style="endArrow=none;html=1;rounded=0;fontFamily=Times New Roman;fontSize=18;entryX=1;entryY=0;entryDx=0;entryDy=0;exitX=0.27;exitY=0.975;exitDx=0;exitDy=0;exitPerimeter=0;fontStyle=1" parent="1" source="Z9PpKv5yHRZ4maq-UPdC-22" target="ihGcIfO41RnAnkwEPjgw-139" edge="1">
          <mxGeometry relative="1" as="geometry">
            <mxPoint x="1030" y="467" as="sourcePoint" />
            <mxPoint x="340" y="660" as="targetPoint" />
          </mxGeometry>
        </mxCell>
        <mxCell id="Z9PpKv5yHRZ4maq-UPdC-33" value="&lt;span style=&quot;font-size: 18px;&quot;&gt;Report&lt;/span&gt;" style="whiteSpace=wrap;html=1;align=center;fontFamily=Times New Roman;fontSize=18;fontStyle=1" parent="1" vertex="1">
          <mxGeometry x="-452" y="2661" width="100" height="40" as="geometry" />
        </mxCell>
        <mxCell id="Z9PpKv5yHRZ4maq-UPdC-34" value="&lt;span style=&quot;font-size: 18px;&quot;&gt;Generate&lt;/span&gt;" style="shape=rhombus;perimeter=rhombusPerimeter;whiteSpace=wrap;html=1;align=center;fontFamily=Times New Roman;fontSize=18;fontStyle=1" parent="1" vertex="1">
          <mxGeometry x="-460" y="2460" width="120" height="60" as="geometry" />
        </mxCell>
        <mxCell id="Z9PpKv5yHRZ4maq-UPdC-35" value="" style="endArrow=none;html=1;rounded=0;fontFamily=Times New Roman;fontSize=18;exitX=0.5;exitY=1;exitDx=0;exitDy=0;entryX=0.5;entryY=0;entryDx=0;entryDy=0;fontStyle=1" parent="1" source="Z9PpKv5yHRZ4maq-UPdC-34" target="Z9PpKv5yHRZ4maq-UPdC-33" edge="1">
          <mxGeometry relative="1" as="geometry">
            <mxPoint x="120" y="2470" as="sourcePoint" />
            <mxPoint x="280" y="2470" as="targetPoint" />
          </mxGeometry>
        </mxCell>
        <mxCell id="Z9PpKv5yHRZ4maq-UPdC-36" value="&lt;span style=&quot;font-size: 18px;&quot;&gt;1&lt;/span&gt;" style="resizable=0;html=1;align=right;verticalAlign=bottom;fontFamily=Times New Roman;fontSize=18;fontStyle=1" parent="Z9PpKv5yHRZ4maq-UPdC-35" connectable="0" vertex="1">
          <mxGeometry x="1" relative="1" as="geometry">
            <mxPoint x="-13" y="-12" as="offset" />
          </mxGeometry>
        </mxCell>
        <mxCell id="Z9PpKv5yHRZ4maq-UPdC-37" value="" style="endArrow=none;html=1;rounded=0;fontFamily=Times New Roman;fontSize=18;exitX=0.5;exitY=0;exitDx=0;exitDy=0;entryX=0.5;entryY=1;entryDx=0;entryDy=0;fontStyle=1" parent="1" source="Z9PpKv5yHRZ4maq-UPdC-34" target="ihGcIfO41RnAnkwEPjgw-27" edge="1">
          <mxGeometry relative="1" as="geometry">
            <mxPoint x="120" y="2470" as="sourcePoint" />
            <mxPoint x="280" y="2470" as="targetPoint" />
          </mxGeometry>
        </mxCell>
        <mxCell id="Z9PpKv5yHRZ4maq-UPdC-38" value="&lt;span style=&quot;font-size: 18px;&quot;&gt;1&lt;/span&gt;" style="resizable=0;html=1;align=right;verticalAlign=bottom;fontFamily=Times New Roman;fontSize=18;fontStyle=1" parent="Z9PpKv5yHRZ4maq-UPdC-37" connectable="0" vertex="1">
          <mxGeometry x="1" relative="1" as="geometry">
            <mxPoint x="-10" y="29" as="offset" />
          </mxGeometry>
        </mxCell>
        <mxCell id="Z9PpKv5yHRZ4maq-UPdC-39" value="&lt;span style=&quot;font-size: 18px;&quot;&gt;Report_ID&lt;/span&gt;" style="ellipse;whiteSpace=wrap;html=1;align=center;fontStyle=5;fontFamily=Times New Roman;fontSize=18;" parent="1" vertex="1">
          <mxGeometry x="-580" y="2751" width="125" height="40" as="geometry" />
        </mxCell>
        <mxCell id="Z9PpKv5yHRZ4maq-UPdC-40" value="&lt;span style=&quot;font-size: 18px;&quot;&gt;Report_No&lt;/span&gt;" style="ellipse;whiteSpace=wrap;html=1;align=center;fontFamily=Times New Roman;fontSize=18;fontStyle=1" parent="1" vertex="1">
          <mxGeometry x="-372" y="2751" width="122" height="40" as="geometry" />
        </mxCell>
        <mxCell id="Z9PpKv5yHRZ4maq-UPdC-42" value="&lt;span style=&quot;font-size: 18px;&quot;&gt;Date&lt;/span&gt;" style="ellipse;whiteSpace=wrap;html=1;align=center;fontFamily=Times New Roman;fontSize=18;fontStyle=1" parent="1" vertex="1">
          <mxGeometry x="-280" y="2470" width="100" height="40" as="geometry" />
        </mxCell>
        <mxCell id="Z9PpKv5yHRZ4maq-UPdC-43" value="" style="endArrow=none;html=1;rounded=0;fontFamily=Times New Roman;fontSize=18;exitX=1;exitY=0.5;exitDx=0;exitDy=0;entryX=0;entryY=0.5;entryDx=0;entryDy=0;fontStyle=1" parent="1" source="Z9PpKv5yHRZ4maq-UPdC-34" target="Z9PpKv5yHRZ4maq-UPdC-42" edge="1">
          <mxGeometry relative="1" as="geometry">
            <mxPoint x="130" y="2430" as="sourcePoint" />
            <mxPoint x="290" y="2430" as="targetPoint" />
          </mxGeometry>
        </mxCell>
        <mxCell id="Z9PpKv5yHRZ4maq-UPdC-44" value="" style="endArrow=none;html=1;rounded=0;fontFamily=Times New Roman;fontSize=18;exitX=0.141;exitY=1.011;exitDx=0;exitDy=0;exitPerimeter=0;entryX=1;entryY=0;entryDx=0;entryDy=0;fontStyle=1" parent="1" source="Z9PpKv5yHRZ4maq-UPdC-33" target="Z9PpKv5yHRZ4maq-UPdC-39" edge="1">
          <mxGeometry relative="1" as="geometry">
            <mxPoint x="128" y="2321" as="sourcePoint" />
            <mxPoint x="288" y="2321" as="targetPoint" />
          </mxGeometry>
        </mxCell>
        <mxCell id="Z9PpKv5yHRZ4maq-UPdC-45" value="" style="endArrow=none;html=1;rounded=0;fontFamily=Times New Roman;fontSize=18;exitX=0.75;exitY=1;exitDx=0;exitDy=0;entryX=0.37;entryY=0.05;entryDx=0;entryDy=0;entryPerimeter=0;fontStyle=1" parent="1" source="Z9PpKv5yHRZ4maq-UPdC-33" target="Z9PpKv5yHRZ4maq-UPdC-40" edge="1">
          <mxGeometry relative="1" as="geometry">
            <mxPoint x="-382" y="2731" as="sourcePoint" />
            <mxPoint x="468" y="2081" as="targetPoint" />
          </mxGeometry>
        </mxCell>
        <mxCell id="Z9PpKv5yHRZ4maq-UPdC-47" value="&lt;span style=&quot;font-size: 18px;&quot;&gt;Make&lt;/span&gt;" style="shape=rhombus;perimeter=rhombusPerimeter;whiteSpace=wrap;html=1;align=center;fontFamily=Times New Roman;fontSize=18;fontStyle=1" parent="1" vertex="1">
          <mxGeometry x="30" y="1400.17" width="120" height="60" as="geometry" />
        </mxCell>
        <mxCell id="Z9PpKv5yHRZ4maq-UPdC-48" value="" style="endArrow=none;html=1;rounded=0;fontFamily=Times New Roman;fontSize=18;entryX=1;entryY=0.5;entryDx=0;entryDy=0;exitX=0;exitY=0.5;exitDx=0;exitDy=0;fontStyle=1" parent="1" source="Z9PpKv5yHRZ4maq-UPdC-47" target="ihGcIfO41RnAnkwEPjgw-4" edge="1">
          <mxGeometry relative="1" as="geometry">
            <mxPoint x="129.98" y="1527.16" as="sourcePoint" />
            <mxPoint x="149.98" y="1621.3300000000002" as="targetPoint" />
          </mxGeometry>
        </mxCell>
        <mxCell id="Z9PpKv5yHRZ4maq-UPdC-49" value="&lt;span style=&quot;font-size: 18px;&quot;&gt;1&lt;/span&gt;" style="resizable=0;html=1;align=right;verticalAlign=bottom;fontFamily=Times New Roman;fontSize=18;fontStyle=1" parent="Z9PpKv5yHRZ4maq-UPdC-48" connectable="0" vertex="1">
          <mxGeometry x="1" relative="1" as="geometry">
            <mxPoint x="30" y="-10" as="offset" />
          </mxGeometry>
        </mxCell>
        <mxCell id="Z9PpKv5yHRZ4maq-UPdC-50" value="" style="endArrow=none;html=1;rounded=0;fontFamily=Times New Roman;fontSize=18;entryX=0;entryY=0.5;entryDx=0;entryDy=0;exitX=1;exitY=0.5;exitDx=0;exitDy=0;fontStyle=1" parent="1" source="Z9PpKv5yHRZ4maq-UPdC-47" target="ihGcIfO41RnAnkwEPjgw-146" edge="1">
          <mxGeometry relative="1" as="geometry">
            <mxPoint x="329.98" y="1427.16" as="sourcePoint" />
            <mxPoint x="339.99999999999955" y="1320.1699999999998" as="targetPoint" />
          </mxGeometry>
        </mxCell>
        <mxCell id="Z9PpKv5yHRZ4maq-UPdC-51" value="&lt;span style=&quot;font-size: 18px;&quot;&gt;M&lt;/span&gt;" style="resizable=0;html=1;align=right;verticalAlign=bottom;fontFamily=Times New Roman;fontSize=18;fontStyle=1" parent="Z9PpKv5yHRZ4maq-UPdC-50" connectable="0" vertex="1">
          <mxGeometry x="1" relative="1" as="geometry">
            <mxPoint x="-21" y="-10" as="offset" />
          </mxGeometry>
        </mxCell>
        <mxCell id="Z9PpKv5yHRZ4maq-UPdC-53" value="&lt;span style=&quot;font-size: 18px;&quot;&gt;M&lt;/span&gt;" style="resizable=0;html=1;align=right;verticalAlign=bottom;fontFamily=Times New Roman;fontSize=18;fontStyle=1" parent="1" connectable="0" vertex="1">
          <mxGeometry x="-410" y="1380.17" as="geometry">
            <mxPoint y="12" as="offset" />
          </mxGeometry>
        </mxCell>
        <mxCell id="Z9PpKv5yHRZ4maq-UPdC-61" value="&lt;font style=&quot;font-size: 18px;&quot;&gt;&lt;span style=&quot;font-size: 18px;&quot;&gt;&lt;span style=&quot;font-size: 18px;&quot;&gt;Manager_Id&lt;/span&gt;&lt;/span&gt;&lt;/font&gt;" style="ellipse;whiteSpace=wrap;html=1;align=center;fontStyle=5;fontFamily=Times New Roman;fontSize=18;" parent="1" vertex="1">
          <mxGeometry x="150" y="1710.17" width="170" height="40" as="geometry" />
        </mxCell>
        <mxCell id="Z9PpKv5yHRZ4maq-UPdC-62" value="" style="endArrow=none;html=1;rounded=0;fontFamily=Times New Roman;fontSize=18;entryX=0;entryY=0;entryDx=0;entryDy=0;exitX=1;exitY=1;exitDx=0;exitDy=0;fontStyle=1" parent="1" source="Z9PpKv5yHRZ4maq-UPdC-61" target="ihGcIfO41RnAnkwEPjgw-183" edge="1">
          <mxGeometry relative="1" as="geometry">
            <mxPoint x="270" y="1760" as="sourcePoint" />
            <mxPoint x="200.00000000000045" y="1690" as="targetPoint" />
          </mxGeometry>
        </mxCell>
        <mxCell id="sGcGfGOtrt6XB6A3tw50-5" value="&lt;span style=&quot;font-size: 18px;&quot;&gt;&lt;font style=&quot;font-size: 18px;&quot;&gt;Profile_ID&lt;/font&gt;&lt;/span&gt;" style="ellipse;whiteSpace=wrap;html=1;align=center;fontStyle=5;fontFamily=Times New Roman;fontSize=18;" parent="1" vertex="1">
          <mxGeometry x="220" y="2180" width="160" height="40" as="geometry" />
        </mxCell>
        <mxCell id="sGcGfGOtrt6XB6A3tw50-6" value="" style="endArrow=none;html=1;rounded=0;entryX=0.5;entryY=1;entryDx=0;entryDy=0;exitX=0.353;exitY=-0.037;exitDx=0;exitDy=0;exitPerimeter=0;fontStyle=1;fontFamily=Times New Roman;fontSize=18;" parent="1" source="ihGcIfO41RnAnkwEPjgw-77" target="sGcGfGOtrt6XB6A3tw50-5" edge="1">
          <mxGeometry relative="1" as="geometry">
            <mxPoint x="320" y="2260" as="sourcePoint" />
            <mxPoint x="290" y="2190" as="targetPoint" />
          </mxGeometry>
        </mxCell>
        <mxCell id="sGcGfGOtrt6XB6A3tw50-8" value="" style="endArrow=none;html=1;rounded=0;exitX=0;exitY=0.5;exitDx=0;exitDy=0;entryX=1;entryY=0.5;entryDx=0;entryDy=0;fontSize=18;fontStyle=1" parent="1" source="ihGcIfO41RnAnkwEPjgw-79" target="sGcGfGOtrt6XB6A3tw50-9" edge="1">
          <mxGeometry relative="1" as="geometry">
            <mxPoint x="80" y="2060" as="sourcePoint" />
            <mxPoint x="240" y="2060" as="targetPoint" />
          </mxGeometry>
        </mxCell>
        <mxCell id="sGcGfGOtrt6XB6A3tw50-9" value="&lt;font style=&quot;font-size: 18px;&quot;&gt;&lt;span style=&quot;font-size: 18px;&quot;&gt;Login_No&lt;/span&gt;&lt;/font&gt;" style="ellipse;whiteSpace=wrap;html=1;align=center;fontStyle=5;fontSize=18;" parent="1" vertex="1">
          <mxGeometry x="-680" y="1957" width="137" height="40" as="geometry" />
        </mxCell>
        <mxCell id="sGcGfGOtrt6XB6A3tw50-10" value="&lt;font style=&quot;font-size: 18px;&quot;&gt;M_Phone_No&lt;/font&gt;" style="ellipse;shape=doubleEllipse;margin=3;whiteSpace=wrap;html=1;align=center;fontStyle=1;fontSize=18;fontFamily=Times New Roman;" parent="1" vertex="1">
          <mxGeometry x="507.02" y="1642.17" width="182.98" height="40" as="geometry" />
        </mxCell>
        <mxCell id="sGcGfGOtrt6XB6A3tw50-11" value="" style="endArrow=none;html=1;rounded=0;entryX=0;entryY=1;entryDx=0;entryDy=0;exitX=0.75;exitY=0;exitDx=0;exitDy=0;fontStyle=1;fontSize=18;fontFamily=Times New Roman;" parent="1" source="ihGcIfO41RnAnkwEPjgw-183" target="sGcGfGOtrt6XB6A3tw50-10" edge="1">
          <mxGeometry relative="1" as="geometry">
            <mxPoint x="442.02" y="1780.17" as="sourcePoint" />
            <mxPoint x="587.02" y="1789.3400000000001" as="targetPoint" />
          </mxGeometry>
        </mxCell>
        <mxCell id="sGcGfGOtrt6XB6A3tw50-12" value="&lt;font style=&quot;font-size: 18px;&quot;&gt;D_Phone_No&lt;/font&gt;" style="ellipse;shape=doubleEllipse;margin=3;whiteSpace=wrap;html=1;align=center;fontStyle=1;fontSize=18;fontFamily=Times New Roman;" parent="1" vertex="1">
          <mxGeometry x="910" y="2032" width="160" height="38" as="geometry" />
        </mxCell>
        <mxCell id="sGcGfGOtrt6XB6A3tw50-13" value="" style="endArrow=none;html=1;rounded=0;entryX=0;entryY=0;entryDx=0;entryDy=0;exitX=0.75;exitY=1;exitDx=0;exitDy=0;fontStyle=1;fontSize=18;fontFamily=Times New Roman;" parent="1" source="ihGcIfO41RnAnkwEPjgw-188" target="sGcGfGOtrt6XB6A3tw50-12" edge="1">
          <mxGeometry relative="1" as="geometry">
            <mxPoint x="880.02" y="2170" as="sourcePoint" />
            <mxPoint x="1025.02" y="2179.17" as="targetPoint" />
          </mxGeometry>
        </mxCell>
      </root>
    </mxGraphModel>
  </diagram>
</mxfile>
